<svg xmlns="http://www.w3.org/2000/svg" width="499.371" height="110.287" viewBox="0 0 499.371 110.287">
  <g id="Group_3" data-name="Group 3" transform="translate(-64 -631.632)">
    <g id="Group_1" data-name="Group 1" transform="translate(-760.544 100.674)">
      <rect id="Rectangle_4" data-name="Rectangle 4" width="31.194" height="31.194" transform="translate(868.659 553.016) rotate(45)" fill="#eb7954"/>
      <path id="Rectangle_11" data-name="Rectangle 11" d="M0,0H31.194a0,0,0,0,1,0,0V31.194a0,0,0,0,1,0,0H4a4,4,0,0,1-4-4V0A0,0,0,0,1,0,0Z" transform="translate(846.602 575.073) rotate(45)" fill="#e9683e"/>
      <rect id="Rectangle_7" data-name="Rectangle 7" width="31.194" height="31.194" transform="translate(912.774 553.016) rotate(45)" fill="#eb7954"/>
      <rect id="Rectangle_9" data-name="Rectangle 9" width="31.194" height="31.194" transform="translate(890.716 575.073) rotate(45)" fill="#e9683e"/>
      <path id="Rectangle_13" data-name="Rectangle 13" d="M0,0H31.194a0,0,0,0,1,0,0V27.194a4,4,0,0,1-4,4H0a0,0,0,0,1,0,0V0A0,0,0,0,1,0,0Z" transform="translate(912.774 597.131) rotate(45)" fill="#e65729"/>
      <path id="Rectangle_14" data-name="Rectangle 14" d="M0,0H31.194a0,0,0,0,1,0,0V27.194a4,4,0,0,1-4,4H0a0,0,0,0,1,0,0V0A0,0,0,0,1,0,0Z" transform="translate(868.659 597.131) rotate(45)" fill="#e65729"/>
      <path id="Rectangle_15" data-name="Rectangle 15" d="M0,0H31.194a0,0,0,0,1,0,0V27.194a4,4,0,0,1-4,4H0a0,0,0,0,1,0,0V0A0,0,0,0,1,0,0Z" transform="translate(956.889 597.131) rotate(45)" fill="#e65729"/>
      <rect id="Rectangle_10" data-name="Rectangle 10" width="31.194" height="31.194" transform="translate(934.831 575.073) rotate(45)" fill="#e9683e"/>
      <path id="Rectangle_12" data-name="Rectangle 12" d="M0,0H27.194a4,4,0,0,1,4,4V31.194a0,0,0,0,1,0,0H0a0,0,0,0,1,0,0V0A0,0,0,0,1,0,0Z" transform="translate(978.946 575.073) rotate(45)" fill="#e9683e"/>
      <rect id="Rectangle_8" data-name="Rectangle 8" width="31.194" height="31.194" transform="translate(956.889 553.016) rotate(45)" fill="#eb7954"/>
      <path id="Rectangle_5" data-name="Rectangle 5" d="M3,0H31.194a0,0,0,0,1,0,0V31.194a0,0,0,0,1,0,0H0a0,0,0,0,1,0,0V3A3,3,0,0,1,3,0Z" transform="translate(890.716 530.958) rotate(45)" fill="#ee8969"/>
      <path id="Rectangle_6" data-name="Rectangle 6" d="M3,0H31.194a0,0,0,0,1,0,0V31.194a0,0,0,0,1,0,0H0a0,0,0,0,1,0,0V3A3,3,0,0,1,3,0Z" transform="translate(934.831 530.958) rotate(45)" fill="#ee8969"/>
    </g>
    <path id="Path_1" data-name="Path 1" d="M72.247-50.9q12.7,0,21.269,8.388A28.17,28.17,0,0,1,102.023-21.6V6.256H81.773V-21.6a8.4,8.4,0,0,0-3.115-7.01,10.219,10.219,0,0,0-6.411-1.977,10.219,10.219,0,0,0-6.411,1.977,8.4,8.4,0,0,0-3.115,7.01V6.256H42.471V-21.6a8.4,8.4,0,0,0-3.115-7.01,10.219,10.219,0,0,0-6.411-1.977,10.219,10.219,0,0,0-6.411,1.977,8.4,8.4,0,0,0-3.115,7.01V6.256H3.169V-40.774h6.89Q18.746-50.9,32.945-50.9A29.413,29.413,0,0,1,52.6-43.949,29.413,29.413,0,0,1,72.247-50.9Zm53.261-3.3h28.578q10.844,0,18.153,10.784a20.789,20.789,0,0,1,2.876,9.885V-7.583q0,7.968-7.07,15.038-6.59,5.632-13.6,5.632H128.863q-10.844,0-18.153-10.784a21.037,21.037,0,0,1-2.876-9.885V-9.86q0-7.968,7.07-13.84,5.512-4.793,10.6-5.392,1.5-.479,7.789-.479H154.8v-1.678q0-3.715-1.438-3.715H125.508a.212.212,0,0,1-.24-.24V-53.955A.212.212,0,0,1,125.508-54.194Zm1.318,44.814v.24q.359,5.272,2.876,5.272h23.425q2.576,0,3-5.512-.419-5.392-2.516-5.392,0-.12-.479-.12H129.822q-2.1,0-2.876,3.715A15.6,15.6,0,0,0,126.826-9.381Zm66.2-31.334A30.131,30.131,0,0,1,216.154-50.9v20.31a10.886,10.886,0,0,0-7.908,3.235,10.785,10.785,0,0,0-3.3,7.908v25.7H184.7V-40.714ZM264.443-26.1A21.066,21.066,0,0,1,279.9-19.685q6.47,5.212,6.47,14.259a20.968,20.968,0,0,1-6.47,15.457,21.066,21.066,0,0,1-15.457,6.411H229.515V-2.611h34.928q1.618,0,1.618-2.816t-1.618-2.816H240.9a21.066,21.066,0,0,1-15.457-6.411q-6.411-5.212-6.411-14.319a21.066,21.066,0,0,1,6.411-15.457A21.066,21.066,0,0,1,240.9-50.839h23.545v19.112H240.9q-1.618,0-1.618,2.756,0,2.876,1.618,2.876Z" transform="translate(277 717.69)" fill="#1d1816"/>
  </g>
</svg>
