<svg xmlns="http://www.w3.org/2000/svg" version="1.1" xmlns:xlink="http://www.w3.org/1999/xlink" xmlns:svgjs="http://svgjs.dev/svgjs" viewBox="0 0 7.643312203917143 3.0169255747951933"><g transform="matrix(1,0,0,1,0.39148136409638523,0.9759627873975967)"><rect width="7.643312203917143" height="7.643312203917143" x="-0.39148136409638523" y="-3.2891561019585716" fill="#ffffff"></rect><g><path d=" M 0.8985 0.16049999999999998 L 0.3285 0.8925 L 0.807 0.8925 Q 0.8475 0.8925 0.873 0.91575 Q 0.8985 0.939 0.8985 0.978 Q 0.8985 1.0154999999999998 0.87225 1.04025 Q 0.846 1.065 0.807 1.065 L 0.1485 1.065 Q 0.1095 1.065 0.081 1.038 Q 0.0525 1.011 0.0525 0.9764999999999999 Q 0.0525 0.948 0.0735 0.9195 L 0.642 0.1874999999999999 L 0.2085 0.1874999999999999 Q 0.168 0.1874999999999999 0.14250000000000002 0.16349999999999998 Q 0.117 0.13949999999999996 0.117 0.10049999999999992 Q 0.117 0.06299999999999994 0.14325000000000002 0.038999999999999924 Q 0.1695 0.014999999999999902 0.2085 0.014999999999999902 L 0.8220000000000001 0.014999999999999902 Q 0.858 0.014999999999999902 0.88875 0.04049999999999998 Q 0.9195 0.06599999999999995 0.9195 0.10349999999999993 Q 0.9195 0.1319999999999999 0.8985 0.16049999999999998 M 1.243515380859375 1.0387499999999998 Q 1.2150153808593749 1.065 1.177515380859375 1.065 Q 1.137015380859375 1.065 1.110765380859375 1.0387499999999998 Q 1.084515380859375 1.0125 1.084515380859375 0.9734999999999999 L 1.084515380859375 0.10649999999999993 Q 1.084515380859375 0.0674999999999999 1.111515380859375 0.04125000000000001 Q 1.138515380859375 0.014999999999999902 1.180515380859375 0.014999999999999902 Q 1.218015380859375 0.014999999999999902 1.2450153808593751 0.04125000000000001 Q 1.272015380859375 0.0674999999999999 1.272015380859375 0.10649999999999993 L 1.272015380859375 0.9734999999999999 Q 1.272015380859375 1.0125 1.243515380859375 1.0387499999999998 M 1.642552001953125 1.053 Q 1.558552001953125 1.026 1.485052001953125 0.9614999999999999 Q 1.444552001953125 0.9255 1.444552001953125 0.8819999999999999 Q 1.444552001953125 0.8474999999999999 1.470052001953125 0.8212499999999999 Q 1.495552001953125 0.7949999999999999 1.531552001953125 0.7949999999999999 Q 1.560052001953125 0.7949999999999999 1.582552001953125 0.813 Q 1.642552001953125 0.8624999999999999 1.699552001953125 0.885 Q 1.7565520019531249 0.9075 1.834552001953125 0.9075 Q 1.918552001953125 0.9075 1.979302001953125 0.8699999999999999 Q 2.040052001953125 0.8324999999999999 2.040052001953125 0.7769999999999999 Q 2.040052001953125 0.7095 1.980052001953125 0.6712499999999999 Q 1.9200520019531249 0.633 1.789552001953125 0.6134999999999999 Q 1.461052001953125 0.5654999999999999 1.461052001953125 0.3074999999999999 Q 1.461052001953125 0.21299999999999997 1.510552001953125 0.14324999999999988 Q 1.560052001953125 0.0734999999999999 1.6455520019531251 0.03674999999999984 Q 1.731052001953125 0 1.836052001953125 0 Q 1.930552001953125 0 2.013802001953125 0.02849999999999997 Q 2.097052001953125 0.05699999999999994 2.152552001953125 0.10349999999999993 Q 2.196052001953125 0.1379999999999999 2.196052001953125 0.18299999999999994 Q 2.196052001953125 0.21749999999999992 2.170552001953125 0.2437499999999999 Q 2.145052001953125 0.2699999999999999 2.110552001953125 0.2699999999999999 Q 2.088052001953125 0.2699999999999999 2.070052001953125 0.25649999999999995 Q 2.031052001953125 0.22499999999999998 1.961302001953125 0.19874999999999998 Q 1.8915520019531251 0.17249999999999988 1.836052001953125 0.17249999999999988 Q 1.741552001953125 0.17249999999999988 1.689802001953125 0.20774999999999988 Q 1.638052001953125 0.24299999999999988 1.638052001953125 0.29999999999999993 Q 1.638052001953125 0.36449999999999994 1.691302001953125 0.39749999999999996 Q 1.7445520019531249 0.4304999999999999 1.858552001953125 0.4514999999999999 Q 1.987552001953125 0.474 2.064802001953125 0.50925 Q 2.1420520019531253 0.5445 2.181052001953125 0.60525 Q 2.220052001953125 0.6659999999999999 2.220052001953125 0.7665 Q 2.220052001953125 0.861 2.166802001953125 0.9322499999999999 Q 2.113552001953125 1.0034999999999998 2.025052001953125 1.04175 Q 1.936552001953125 1.0799999999999998 1.834552001953125 1.0799999999999998 Q 1.726552001953125 1.0799999999999998 1.642552001953125 1.053 M 2.538029296875 1.053 Q 2.454029296875 1.026 2.380529296875 0.9614999999999999 Q 2.340029296875 0.9255 2.340029296875 0.8819999999999999 Q 2.340029296875 0.8474999999999999 2.365529296875 0.8212499999999999 Q 2.391029296875 0.7949999999999999 2.427029296875 0.7949999999999999 Q 2.455529296875 0.7949999999999999 2.478029296875 0.813 Q 2.538029296875 0.8624999999999999 2.595029296875 0.885 Q 2.652029296875 0.9075 2.730029296875 0.9075 Q 2.814029296875 0.9075 2.874779296875 0.8699999999999999 Q 2.935529296875 0.8324999999999999 2.935529296875 0.7769999999999999 Q 2.935529296875 0.7095 2.875529296875 0.6712499999999999 Q 2.815529296875 0.633 2.6850292968750002 0.6134999999999999 Q 2.356529296875 0.5654999999999999 2.356529296875 0.3074999999999999 Q 2.356529296875 0.21299999999999997 2.406029296875 0.14324999999999988 Q 2.455529296875 0.0734999999999999 2.541029296875 0.03674999999999984 Q 2.626529296875 0 2.7315292968750002 0 Q 2.8260292968750003 0 2.909279296875 0.02849999999999997 Q 2.992529296875 0.05699999999999994 3.048029296875 0.10349999999999993 Q 3.091529296875 0.1379999999999999 3.091529296875 0.18299999999999994 Q 3.091529296875 0.21749999999999992 3.066029296875 0.2437499999999999 Q 3.040529296875 0.2699999999999999 3.006029296875 0.2699999999999999 Q 2.983529296875 0.2699999999999999 2.965529296875 0.25649999999999995 Q 2.926529296875 0.22499999999999998 2.856779296875 0.19874999999999998 Q 2.787029296875 0.17249999999999988 2.7315292968750002 0.17249999999999988 Q 2.637029296875 0.17249999999999988 2.585279296875 0.20774999999999988 Q 2.533529296875 0.24299999999999988 2.533529296875 0.29999999999999993 Q 2.533529296875 0.36449999999999994 2.586779296875 0.39749999999999996 Q 2.640029296875 0.4304999999999999 2.754029296875 0.4514999999999999 Q 2.8830292968749998 0.474 2.960279296875 0.50925 Q 3.0375292968750003 0.5445 3.076529296875 0.60525 Q 3.115529296875 0.6659999999999999 3.115529296875 0.7665 Q 3.115529296875 0.861 3.062279296875 0.9322499999999999 Q 3.009029296875 1.0034999999999998 2.920529296875 1.04175 Q 2.832029296875 1.0799999999999998 2.730029296875 1.0799999999999998 Q 2.622029296875 1.0799999999999998 2.538029296875 1.053" fill="#262626" fill-rule="nonzero"></path></g><g></g><g clip-path="url(#SvgjsClipPath1003)"><g clip-path="url(#bd0ead3c6-82da-4043-b621-d55f7b84c1b859156f17-5ea3-4609-908d-184f1913bc7c)"><path d=" M 5.21793069690525 -0.16737138181554018 C 5.364199532273963 -0.16737138181554018 5.50164133314986 -0.11040180950606704 5.605074682114777 -0.007022614126994675 L 5.703309286838527 -0.10525721885074396 C 5.574716455147201 -0.2341960210923109 5.400033079906905 -0.30656011484074586 5.21793069690525 -0.3063294830951106 C 5.035828313903595 -0.3065601148407459 4.861144938663298 -0.2341960210923109 4.732552106971973 -0.10525721885074396 L 4.830786711695722 -0.007022614126994675 C 4.9332405311368 -0.11003167011683829 5.072646524540001 -0.16777137447645252 5.217930696905249 -0.16737138181554012" fill="#262626" transform="matrix(1,0,0,1,0,0)" fill-rule="nonzero"></path></g><g clip-path="url(#bd0ead3c6-82da-4043-b621-d55f7b84c1b859156f17-5ea3-4609-908d-184f1913bc7c)"><path d=" M 5.21793069690525 0.1111946637737462 C 5.289305890684274 0.11100255001791137 5.357790988049329 0.13937550464950466 5.4081180903946695 0.18998813117895863 L 5.5063526951184185 0.0916993728693638 C 5.429928893041828 0.015100371858793649 5.326134154559449 -0.02789083976195883 5.21793069690525 -0.027763437505824107 C 5.1097272392510495 -0.02789083976195883 5.005932500768671 0.015100371858793649 4.92950869869208 0.0916993728693638 L 5.027743303415829 0.18998813117895863 C 5.078070405761171 0.13937550464950466 5.146555503126226 0.11100255001791137 5.21793069690525 0.1111946637737462" fill="#262626" transform="matrix(1,0,0,1,0,0)" fill-rule="nonzero"></path></g><g clip-path="url(#bd0ead3c6-82da-4043-b621-d55f7b84c1b859156f17-5ea3-4609-908d-184f1913bc7c)"><path d=" M 5.308096417338018 0.47034124510114705 C 5.258299264985493 0.5201533515534775 5.177550006131888 0.5201654742465947 5.127737899679557 0.47036832189406974 C 5.0779257932272275 0.42057116954154483 5.07791367053411 0.3398219106879401 5.127710822886635 0.2900098042356096 C 5.17750797523916 0.24019769778327893 5.258257234092765 0.2401855750901618 5.308069340545096 0.2899827274426868 C 5.357881446997426 0.3397798797952116 5.357893569690543 0.4205291386488166 5.308096417338018 0.47034124510114705" fill="#262626" transform="matrix(1,0,0,1,0,0)" fill-rule="nonzero"></path></g><g clip-path="url(#bd0ead3c6-82da-4043-b621-d55f7b84c1b859156f17-5ea3-4609-908d-184f1913bc7c)"><path d=" M 5.21793069690525 -0.445504198718063 C 5.438498252053998 -0.445504198718063 5.645852332256444 -0.35961661156708935 5.8017605059056585 -0.2036542843320298 L 5.900049264215252 -0.3018888890557791 C 5.7193395727055725 -0.4830998974027225 5.4738473044629075 -0.5847971549202062 5.217930696905249 -0.5844622999976335 C 4.9620140893475915 -0.584797154920206 4.7165218211049265 -0.48309989740272213 4.5358121295952465 -0.30188888905577904 L 4.634100887904841 -0.2036542843320298 C 4.788589996542736 -0.35902422481827634 4.9988272265632085 -0.44611442695828474 5.21793069690525 -0.445504198718063" fill="#262626" transform="matrix(1,0,0,1,0,0)" fill-rule="nonzero"></path></g><g clip-path="url(#bd0ead3c6-82da-4043-b621-d55f7b84c1b859156f17-5ea3-4609-908d-184f1913bc7c)"><path d=" M 4.6722250123400775 1.20585524805482 L 4.297319737531634 1.20585524805482 L 4.297319737531634 1.205638633711438 L 4.158361636252064 1.205638633711438 L 4.158361636252064 1.20585524805482 C 3.9135874282303735 1.20585524805482 3.7144105394905997 1.0066783593150461 3.7144105394905997 0.7619041512933558 C 3.7144105394905997 0.5170757896858194 3.9135874282303735 0.31795305453189104 4.158361636252064 0.31795305453189104 L 4.394579577710164 0.31795305453189104 C 4.405480240928096 0.16851997676838415 4.457219988993912 0.02495247887684937 4.5441517818154535 -0.0970800273880717 L 4.444725798203104 -0.19656016458626868 C 4.361465876187262 -0.08519655149016114 4.303442191058716 0.04295448556922454 4.274683538648213 0.1789949532523203 L 4.158361636252064 0.1789949532523203 C 3.8364727219863717 0.17899495325232062 3.5755065917968745 0.4399610834418175 3.5755065917968745 0.7619041512933553 C 3.5755065917968745 1.0838472191448931 3.8364727219863717 1.3448133493343901 4.158361636252064 1.3448133493343901 L 4.791904437058648 1.3448133493343901 C 4.7456694997588125 1.304358106428968 4.70537863023002 1.25757694298513 4.6722250123400775 1.20585524805482 M 6.277445603972589 0.17899495325232073 L 6.16112370157644 0.17899495325232073 C 6.132386265430096 0.04295730793303809 6.0743807418711775 -0.0851944301622467 5.991135595607395 -0.19656016458626813 L 5.891655458409199 -0.0970800273880727 C 5.9786040391395785 0.02494800187319035 6.030362423763607 0.16851523305616312 6.041281816100334 0.31795305453189104 L 6.277445603972589 0.31795305453189104 C 6.52221981199428 0.31795305453189104 6.721396700734054 0.5170757896858194 6.721396700734054 0.7619041512933558 C 6.721396700734054 1.0066783593150461 6.52221981199428 1.20585524805482 6.277445603972589 1.20585524805482 L 6.277445603972589 1.205638633711438 L 6.138487502693018 1.205638633711438 L 6.138487502693018 1.20585524805482 L 5.763582227884576 1.20585524805482 C 5.730428609994633 1.2575769429851298 5.6901377404658415 1.3043581064289673 5.643902803166006 1.3448133493343892 L 6.277445603972589 1.3448133493343892 C 6.599388671824126 1.3448133493343903 6.860354802013623 1.0838472191448931 6.860354802013623 0.7619041512933558 C 6.860354802013623 0.4399610834418177 6.599388671824126 0.17899495325232073 6.2774456039725886 0.17899495325232073" fill="#e8a941" transform="matrix(1,0,0,1,0,0)" fill-rule="nonzero"></path></g><g clip-path="url(#bd0ead3c6-82da-4043-b621-d55f7b84c1b859156f17-5ea3-4609-908d-184f1913bc7c)"><path d=" M 5.7636363814704215 1.20585524805482 C 5.6483975507911826 1.3856451530619023 5.446946211445898 1.5051621170229355 5.217930696905249 1.5051621170229355 C 4.988969335950447 1.5051621170229355 4.787517996605162 1.3856451530619025 4.672279165925923 1.20585524805482 L 4.506677500410364 1.20585524805482 C 4.635887956237743 1.4683918322338367 4.906168503192667 1.6494814233012114 5.21793069690525 1.6494814233012114 C 5.529747044203678 1.6494814233012114 5.800027591158601 1.4683918322338367 5.929183893400134 1.20585524805482 Z" fill="#e8a941" transform="matrix(1,0,0,1,0,0)" fill-rule="nonzero"></path></g></g></g><defs><clipPath id="SvgjsClipPath1003"><path d=" M 3.575506591796875 -0.5844814233012114 h 3.2848428839274972 v 2.233962846602423 h -3.2848428839274972 Z"></path></clipPath><clipPath id="bd0ead3c6-82da-4043-b621-d55f7b84c1b859156f17-5ea3-4609-908d-184f1913bc7c"><path d=" M 3.5213530059513682 -0.6386158858431404 L 6.914508387859131 -0.6386158858431404 L 6.914508387859131 1.703635009146718 L 3.5213530059513682 1.703635009146718 Z"></path></clipPath></defs></svg>