<?xml version="1.0" encoding="utf-8"?>
<!-- Generator: Adobe Illustrator 26.3.1, SVG Export Plug-In . SVG Version: 6.00 Build 0)  -->
<svg version="1.1" id="Layer_1" xmlns="http://www.w3.org/2000/svg" xmlns:xlink="http://www.w3.org/1999/xlink" x="0px" y="0px"
	 viewBox="0 0 360.9 210.5" style="enable-background:new 0 0 360.9 210.5;" xml:space="preserve">
<style type="text/css">
	.st0{fill:#EAEDFB;}
	.st1{fill:#404DC4;}
	.st2{fill:#5B62DB;}
	.st3{fill:#FFFFFF;}
	.st4{opacity:0.57;}
	.st5{fill:none;stroke:#A2C9F8;stroke-width:3.01;stroke-linecap:round;stroke-linejoin:round;}
	.st6{fill:none;stroke:#FFFFFF;stroke-width:2.81;stroke-miterlimit:10;}
	.st7{fill:#F04365;}
	.st8{fill:none;stroke:#FFFFFF;stroke-width:4.21;stroke-linecap:round;stroke-linejoin:round;}
	.st9{fill:#1B1754;}
	.st10{fill:#243051;}
	.st11{fill:#2A2B7B;}
	.st12{fill:#F89A6E;}
	.st13{fill:#D72E57;}
	.st14{fill:#E88057;}
	.st15{clip-path:url(#SVGID_00000109021688138882611640000002273296114049850275_);}
	.st16{fill:#FDD63B;}
	.st17{fill:#F2A62F;}
	.st18{clip-path:url(#SVGID_00000013171243692898225540000000415845787499520150_);}
	.st19{fill:#F97D7D;}
	.st20{clip-path:url(#SVGID_00000004516825113864844500000017385409405810579612_);}
	.st21{fill:#FAFAFA;}
	.st22{fill:#EB9924;}
	.st23{fill:#8BBDF8;}
	.st24{clip-path:url(#SVGID_00000134223761960641111100000010598067726171448470_);}
	.st25{fill:none;stroke:#102236;stroke-width:0.65;stroke-linecap:round;stroke-linejoin:round;}
</style>
<g id="DESIGNED_BY_FREEPIK">
	<g>
		<path class="st0" d="M306.8,209.4c0,0,54.3-24.1,53-72.8s-52.7-71.3-87.6-41.3c-34.9,30.1-57.5,4.8-75.6-20.6
			S138.2,17.3,85.3,32.1c-55.4,15.5-72.5,71.7-67,109.1c4,26.9,18.4,49.7,38,67.3c0.6,0.6,1.3,1.1,2,1.7L306.8,209.4L306.8,209.4
			L306.8,209.4z"/>
		<g>
			<g>
				<g>
					<rect x="159.3" y="193.3" class="st1" width="45.4" height="11.1"/>
					<path class="st2" d="M213.2,210.2h-62.5c-1.6,0-2.9-1.3-2.9-2.9l0,0c0-1.6,1.3-2.9,2.9-2.9h62.5c1.6,0,2.9,1.3,2.9,2.9l0,0
						C216.1,208.9,214.8,210.2,213.2,210.2z"/>
				</g>
				<g>
					<path class="st2" d="M284,65.6c0-3.6-2.9-6.5-6.5-6.5h-191c-3.6,0-6.5,2.9-6.5,6.5v110.6H284V65.6z"/>
					<rect x="88.7" y="68.4" class="st0" width="186.6" height="99.2"/>
					<path class="st3" d="M86.5,194.4h191c3.6,0,6.5-2.9,6.5-6.5v-11.8H79.9v11.8C79.9,191.5,82.9,194.4,86.5,194.4L86.5,194.4z"/>
					<path class="st1" d="M185.9,185.3c0,2.1-1.7,3.9-3.9,3.9s-3.9-1.7-3.9-3.9s1.7-3.9,3.9-3.9S185.9,183.1,185.9,185.3z"/>
				</g>
			</g>
			<g class="st4">
				<polygon class="st3" points="140.5,68.4 97.9,167.6 113,167.6 156.1,68.4 				"/>
				<polygon class="st3" points="249.2,68.4 206.6,167.6 221.6,167.6 264.7,68.4 				"/>
				<polygon class="st3" points="175.3,68.4 132.7,167.6 177.3,167.6 220.3,68.4 				"/>
			</g>
			<g>
				<g>
					<rect x="102" y="89.1" class="st3" width="79.2" height="56.1"/>
					<rect x="102" y="89.1" class="st5" width="79.2" height="56.1"/>
				</g>
				<g>
					<line class="st6" x1="190.2" y1="93.3" x2="262.6" y2="93.3"/>
					<line class="st6" x1="190.2" y1="110.3" x2="234.7" y2="110.3"/>
					<line class="st6" x1="190.2" y1="101.7" x2="203" y2="101.7"/>
				</g>
				<g>
					<line class="st6" x1="190.2" y1="121.3" x2="262.6" y2="121.3"/>
					<line class="st6" x1="190.2" y1="138.2" x2="262.6" y2="138.2"/>
					<line class="st6" x1="190.2" y1="129.6" x2="232.9" y2="129.6"/>
				</g>
				<circle class="st7" cx="140" cy="116.8" r="17.4"/>
				<line class="st8" x1="131.2" y1="116.8" x2="148.3" y2="116.8"/>
			</g>
		</g>
		<g>
			<g>
				<g>
					<polygon class="st9" points="296.2,150.2 300,205.5 305.9,205.5 307.1,150.2 					"/>
					<path class="st10" d="M295,210.1h10.8v-5h-5.8C297.3,205,295,207.3,295,210.1L295,210.1z"/>
				</g>
				<g>
					<path class="st10" d="M307.9,210.1h11.3l-0.5-5h-5.8C310.1,205,307.9,207.3,307.9,210.1L307.9,210.1L307.9,210.1z"/>
					<polygon class="st11" points="314.9,150.3 318.7,205 312.9,205.2 303.2,150.3 					"/>
				</g>
			</g>
			<g>
				<g>
					<path class="st7" d="M304.8,121.8l15.4,13.8c1.3,1.1,3.2,1.2,4.5,0.1l0,0c1.5-1.2,1.7-3.5,0.5-5c0,0-7.4-10-11.6-13.3
						L304.8,121.8L304.8,121.8L304.8,121.8z"/>
					<g>
						<path class="st12" d="M328.6,155.3c0,2.1-1.7,3.7-3.7,3.7s-3.7-1.7-3.7-3.7s1.7-3.7,3.7-3.7S328.6,153.2,328.6,155.3z"/>
						<path class="st7" d="M320.1,134l2,18.4h5.3l-1.2-19c-0.1-1.8-1.8-3.1-3.5-2.8l0,0C321,130.8,319.9,132.4,320.1,134L320.1,134
							L320.1,134z"/>
					</g>
				</g>
				<g>
					<path class="st7" d="M303.2,114.8c0,0-7.6,0.2-8,7.8c-0.4,7.6,0.9,27.7,0.9,27.7h18.8l0.5-24.6c1.2-6.6-2.1-10.7-8.9-11
						C305.5,114.7,304.4,114.7,303.2,114.8C303.2,114.8,303.2,114.8,303.2,114.8z"/>
					<polygon class="st13" points="315.3,131.2 312,128.3 315.2,137.2 					"/>
				</g>
				<g>
					<g>
						<path class="st12" d="M277.6,108.3c0,2.1-1.7,3.7-3.7,3.7s-3.7-1.7-3.7-3.7s1.7-3.7,3.7-3.7S277.6,106.3,277.6,108.3z"/>
						<path class="st7" d="M285.6,128.4l-8-18.1l-5.1,1.6l7.2,18.3c0.5,1.7,2.4,2.7,4,2l0,0C285.3,131.7,286.1,130,285.6,128.4
							L285.6,128.4L285.6,128.4z"/>
					</g>
					<g>
						<path class="st7" d="M300.3,115.5c-10,4.1-18.9,10.5-18.9,10.5c-1.5,0.8-2.2,2.6-1.6,4.2l0,0c0.7,1.8,2.7,2.8,4.5,2.1
							l15.2-7.4L300.3,115.5L300.3,115.5z"/>
						<polygon class="st13" points="295.1,127 295.2,122.6 291.8,128.6 						"/>
					</g>
				</g>
			</g>
			<g>
				<g>
					<path class="st12" d="M301,110.5l0.2,5.1c0,1.1,0.8,2.1,1.8,2.5l0,0c2,0.8,4-0.8,3.8-2.9l-0.3-5.1L301,110.5L301,110.5z"/>
					<path class="st14" d="M301.2,114.1c0,0,4.7,0.7,5.4-4c0.7-4.6-4.5-2.7-4.5-2.7l-1,3.8L301.2,114.1L301.2,114.1L301.2,114.1z"/>
					<g>
						<path class="st12" d="M297.7,98.5c-3.1,3.3-2.9,8.6,0.4,11.7s8.6,2.9,11.7-0.4c3.1-3.3,2.9-8.6-0.4-11.7
							S300.8,95.1,297.7,98.5z"/>
						<g>
							<defs>
								<path id="SVGID_1_" d="M297.7,98.5c-3.1,3.3-2.9,8.6,0.4,11.7s8.6,2.9,11.7-0.4c3.1-3.3,2.9-8.6-0.4-11.7
									S300.8,95.1,297.7,98.5z"/>
							</defs>
							<clipPath id="SVGID_00000067227010927732899430000015702377893539446968_">
								<use xlink:href="#SVGID_1_"  style="overflow:visible;"/>
							</clipPath>
							<g style="clip-path:url(#SVGID_00000067227010927732899430000015702377893539446968_);">
								<g>
									<path class="st10" d="M306.2,106.6c0,0-3.3,5.9,1.3,7.6c4.6,1.6,5.9-11.2,5.9-11.2l-5-9.8l-12.1-0.8l-0.7,4.2
										c0,0,1.2,4.1,11.3,7.9L306.2,106.6L306.2,106.6L306.2,106.6z"/>
									<polygon class="st10" points="303.7,102 305.1,106.8 308.8,104.7 									"/>
								</g>
							</g>
						</g>
					</g>
					<path class="st12" d="M305.4,105c-0.8,0.9-0.8,2.3,0.1,3.1s2.3,0.8,3.1-0.1c0.8-0.9,0.8-2.3-0.1-3.1S306.2,104.1,305.4,105z"/>
				</g>
				<g>
					<path class="st16" d="M295.3,101.4c0,0-0.4-5.9,4.6-9c4.1-2.5,9.7-1.2,11.9,3.1c1.1,2,1.7,4,1,7.8L295.3,101.4L295.3,101.4
						L295.3,101.4z"/>
					<path class="st17" d="M312.5,104.2h-0.1l-19.9-2.1c-0.5-0.1-0.8-0.5-0.8-0.9s0.5-0.8,1-0.8l19.9,2.1c0.5,0.1,0.8,0.5,0.8,0.9
						C313.3,103.9,312.9,104.2,312.5,104.2L312.5,104.2L312.5,104.2z"/>
				</g>
			</g>
		</g>
		<g>
			<g>
				
					<ellipse transform="matrix(0.229 -0.9734 0.9734 0.229 198.2329 305.8406)" class="st2" cx="292.2" cy="27.8" rx="15.5" ry="15.5"/>
				<path class="st3" d="M294.4,34.5c0,3-4.5,3-4.5,0S294.4,31.5,294.4,34.5z M294.2,19.2l-0.1,11.2h-3.8c0-4.2-0.1-6.9-0.1-11.2
					H294.2z"/>
			</g>
			<g>
				<path class="st0" d="M193.3,0.2l1.3,3.3c0.8,2,2.4,3.6,4.4,4.4l3.3,1.3l-3.3,1.3c-2,0.8-3.6,2.4-4.4,4.4l-1.3,3.3l-1.3-3.3
					c-0.8-2-2.4-3.6-4.4-4.4l-3.3-1.3l3.3-1.3c2-0.8,3.6-2.4,4.4-4.4C192,3.5,193.3,0.2,193.3,0.2z"/>
				<path class="st0" d="M228.8,28.7l0.9,2.2c0.5,1.4,1.6,2.4,3,3l2.2,0.8l-2.2,0.8c-1.4,0.5-2.4,1.6-3,3l-0.9,2.2l-0.9-2.2
					c-0.5-1.4-1.6-2.4-3-3l-2.2-0.8l2.2-0.8c1.4-0.5,2.4-1.6,3-3L228.8,28.7z"/>
				<path class="st0" d="M13.6,47.7l0.7,1.8c0.4,1.1,1.3,2,2.4,2.4l1.8,0.7l-1.8,0.7c-1.1,0.4-2,1.3-2.4,2.4l-0.7,1.8L13,55.6
					c-0.4-1.1-1.3-2-2.4-2.4l-1.8-0.7l1.8-0.7c1.1-0.4,2-1.3,2.4-2.4L13.6,47.7z"/>
				<path class="st0" d="M341.9,56.8l0.7,1.8c0.4,1.1,1.3,2,2.4,2.4l1.8,0.7l-1.8,0.7c-1.1,0.4-2,1.3-2.4,2.4l-0.7,1.8l-0.7-1.8
					c-0.4-1.1-1.3-2-2.4-2.4l-1.8-0.7l1.8-0.7c1.1-0.4,2-1.3,2.4-2.4C341.2,58.6,341.9,56.8,341.9,56.8z"/>
			</g>
		</g>
		<g>
			<g>
				<g>
					<path class="st12" d="M91.8,20l3.6,3.6c0.8,0.8,1.9,1,3,0.7l0,0c2-0.7,2.5-3.3,0.9-4.7L95.7,16L91.8,20L91.8,20L91.8,20z"/>
					<path class="st14" d="M94.4,22.6c0,0,2.2-4.6,1.3-6.6c-1.9-4.3-5.2,1-5.2,1l1.8,3.5L94.4,22.6L94.4,22.6L94.4,22.6z"/>
				</g>
				<g>
					<path class="st12" d="M81.3,13.2c-0.1,4.6,3.6,8.3,8.1,8.4s8.3-3.6,8.4-8.1s-3.6-8.3-8.1-8.4S81.4,8.7,81.3,13.2z"/>
					<g>
						<defs>
							<path id="SVGID_00000110442675365545755270000009228735798755920018_" d="M81.3,13.2c-0.1,4.6,3.6,8.3,8.1,8.4
								s8.3-3.6,8.4-8.1s-3.6-8.3-8.1-8.4S81.4,8.7,81.3,13.2z"/>
						</defs>
						<clipPath id="SVGID_00000091012903085134284370000005892368886461963143_">
							<use xlink:href="#SVGID_00000110442675365545755270000009228735798755920018_"  style="overflow:visible;"/>
						</clipPath>
						<g style="clip-path:url(#SVGID_00000091012903085134284370000005892368886461963143_);">
							<g>
								<path class="st10" d="M93.1,13.6c0,0,1.5,6.6,6,4.7c4.5-1.9-3-12.3-3-12.3L85.9,2.2l-9.6,7.5l1.1,6.5c0,0,3.4-2.4,13.6-6.4
									C90.9,9.7,93.1,13.6,93.1,13.6z"/>
								<polygon class="st10" points="88.1,11.8 92.4,14.5 93.7,10.4 								"/>
							</g>
						</g>
					</g>
				</g>
				<path class="st10" d="M93.6,15.2c0,0,7.1,19.5,16,10.6c7.9-7.9-4-12.7-7.3-13.5c-2.5-0.6-3.4-1.5-6.5-4.4l-6.2,0.9
					C89.6,8.8,93.6,15.2,93.6,15.2z"/>
				<path class="st12" d="M91.4,12.9c0,1.2,0.9,2.2,2.2,2.2c1.2,0,2.2-0.9,2.2-2.2c0-1.2-0.9-2.2-2.2-2.2
					C92.4,10.7,91.4,11.7,91.4,12.9z"/>
				<g>
					<path class="st16" d="M80.5,14.5c0,0-3.3-5-0.4-10.1c2.3-4.2,7.8-5.8,11.9-3.2c1.9,1.2,3.4,2.6,4.7,6.3L80.5,14.5L80.5,14.5
						L80.5,14.5z"/>
					<path class="st17" d="M96.9,8.5C96.9,8.5,96.9,8.5,96.9,8.5l-18.4,7.9c-0.4,0.2-0.9,0-1.1-0.5s0-0.9,0.5-1.1L96.2,7
						c0.4-0.2,0.9,0,1.1,0.5C97.5,7.8,97.3,8.3,96.9,8.5L96.9,8.5z"/>
				</g>
			</g>
			<g>
				<g>
					<path class="st9" d="M80.2,60.8L61.9,79.6l-4.7-2.1L73.1,55c1.6-2.6,5.2-2.8,7-0.3l0,0C81.1,56.1,81.2,59.3,80.2,60.8
						L80.2,60.8L80.2,60.8z"/>
					<path class="st10" d="M50.2,77.4l9.2,6.5l2.5-4.4l-4.8-3.3C54.9,74.6,51.8,75.1,50.2,77.4C50.2,77.4,50.2,77.4,50.2,77.4z"/>
				</g>
				<g>
					<path class="st11" d="M92.8,49.6l-18.5,3.3l3.8,7.2H103c0,0,7.5-0.2,4-8.4L92.8,49.6L92.8,49.6L92.8,49.6z"/>
					<path class="st11" d="M81.2,55.3L90,84.4l-5,2.8L71.1,59.1c-1.4-2.7,0.3-5.9,3.3-6.2l0,0C76.1,52.7,80.4,53.7,81.2,55.3z"/>
					<path class="st10" d="M82.7,93.9l9.2-4.9l-2-4.6l-5.1,2.7C82.4,88.4,81.4,91.5,82.7,93.9L82.7,93.9L82.7,93.9z"/>
				</g>
			</g>
			<g>
				<path class="st7" d="M91.8,27.7c0,0,0.8-3.3,1.7-4.3c0.7-0.7,3.1-3,4.4-3.5c0.4-0.1,0.8-0.1,1.2,0.1c1.6,1,6,4.1,8.1,10.6
					c2.1,6.2,2.5,24,2.5,24c-5.9,3.8-16.9-5-16.9-5C93.1,38.6,90.4,38,91.8,27.7L91.8,27.7L91.8,27.7z"/>
				<g>
					<path class="st13" d="M90.6,50l8.7,0.4c2.9,0.2,4.3-2,4.4-3.9l0.4-15L90.6,50z"/>
					<g>
						<path class="st19" d="M82.8,47.9L77.6,46c-0.4-0.2-0.9-0.1-1.2,0.2l-2.3,1.9c-0.7,0.5-0.5,1.6,0.3,2l0,0
							c0.4,0.2,0.9,0.1,1.2-0.2l1.1-1c0,0,3.8,2.2,5.6,1.6L82.8,47.9C82.8,47.9,82.8,47.9,82.8,47.9z"/>
						<path class="st7" d="M95.9,25.1L95,41.9l-13.7,3.5l0.6,5.1l16.7-1.8c1.2-0.1,2.3-0.6,3.1-1.5c0.4-0.5,0.7-1.1,0.7-1.8
							l2.1-17.5L95.9,25.1L95.9,25.1L95.9,25.1z"/>
					</g>
					<g>
						<path class="st10" d="M72.8,54.6l19.4-3.4c0.6-0.1,1-0.7,0.9-1.3l0,0c-0.1-0.6-0.7-1-1.3-0.9l-19.4,3.4
							c-0.6,0.1-1,0.7-0.9,1.3l0,0C71.7,54.3,72.2,54.7,72.8,54.6z"/>
						<path class="st10" d="M73,53.6c-0.1,0-0.2,0-0.3-0.1L61,40.2c-0.2-0.2-0.1-0.4,0-0.6c0.2-0.2,0.4-0.1,0.6,0l11.7,13.2
							c0.2,0.2,0.1,0.4,0,0.6C73.2,53.5,73.1,53.6,73,53.6z"/>
					</g>
				</g>
			</g>
			<path class="st10" d="M95.7,19.7c0,0,5.5,13.3,13.1,6.7s-8.3-10.5-8.3-10.5L95.7,19.7L95.7,19.7L95.7,19.7z"/>
		</g>
		<g>
			<g>
				<g>
					<g>
						<path class="st17" d="M246.6,207.9l9.9-25.5c0.5-1.2,2.2-1.2,2.7,0l9.9,25.5L246.6,207.9L246.6,207.9z"/>
						<g>
							<defs>
								<path id="SVGID_00000105391032211614648410000015180026786392319121_" d="M246.6,207.9l9.9-25.5c0.5-1.2,2.2-1.2,2.7,0
									l9.9,25.5L246.6,207.9L246.6,207.9z"/>
							</defs>
							<clipPath id="SVGID_00000178180943390317106060000003505184150467112637_">
								<use xlink:href="#SVGID_00000105391032211614648410000015180026786392319121_"  style="overflow:visible;"/>
							</clipPath>
							<g style="clip-path:url(#SVGID_00000178180943390317106060000003505184150467112637_);">
								<g>
									<rect x="248.9" y="187.8" class="st21" width="17.5" height="4.9"/>
									<rect x="247.9" y="197.1" class="st21" width="19.8" height="4.9"/>
								</g>
							</g>
						</g>
					</g>
					<path class="st22" d="M270.6,210h-25.4c-1,0-1.8-0.8-1.8-1.8l0,0c0-1,0.8-1.8,1.8-1.8h25.4c1,0,1.8,0.8,1.8,1.8l0,0
						C272.4,209.2,271.6,210,270.6,210z"/>
				</g>
				<g>
					<rect x="52.2" y="178.4" class="st23" width="7.7" height="21.8"/>
					<rect x="93" y="178.4" class="st23" width="7.7" height="21.8"/>
					<path class="st2" d="M47.5,199.1H105c1.9,0,3.4,1.5,3.4,3.4v4.3c0,1.9-1.5,3.4-3.4,3.4H47.5c-1.9,0-3.4-1.5-3.4-3.4v-4.3
						C44.2,200.6,45.7,199.1,47.5,199.1z"/>
					<g>
						<path class="st17" d="M49.3,160.5h54.6c2.8,0,5.1,2.3,5.1,5.1v9.4c0,2.8-2.3,5.1-5.1,5.1H49.3c-2.8,0-5.1-2.3-5.1-5.1v-9.4
							C44.2,162.8,46.5,160.5,49.3,160.5z"/>
						<g>
							<defs>
								<path id="SVGID_00000030453216096965956980000018198134949791327898_" d="M49.3,160.5h54.6c2.8,0,5.1,2.3,5.1,5.1v9.4
									c0,2.8-2.3,5.1-5.1,5.1H49.3c-2.8,0-5.1-2.3-5.1-5.1v-9.4C44.2,162.8,46.5,160.5,49.3,160.5z"/>
							</defs>
							<clipPath id="SVGID_00000016053244415166529130000005893654798043486350_">
								<use xlink:href="#SVGID_00000030453216096965956980000018198134949791327898_"  style="overflow:visible;"/>
							</clipPath>
							<g style="clip-path:url(#SVGID_00000016053244415166529130000005893654798043486350_);">
								<g>
									<polygon class="st3" points="43.3,187.1 31.6,187.1 58.9,156.9 70.6,156.9 									"/>
									<polygon class="st3" points="90.8,187.1 79.1,187.1 106.4,156.9 118.1,156.9 									"/>
									<polygon class="st3" points="66.6,187.1 54.9,187.1 82.2,156.9 93.8,156.9 									"/>
								</g>
							</g>
						</g>
					</g>
				</g>
			</g>
			<line class="st25" x1="0.3" y1="210.2" x2="360.6" y2="210.2"/>
		</g>
	</g>
</g>
</svg>
