<?xml version="1.0" encoding="UTF-8"?><svg xmlns="http://www.w3.org/2000/svg" xmlns:xlink="http://www.w3.org/1999/xlink" viewBox="0 0 515.51 406.32"><defs><style>.cls-1{fill:url(#Degradado_sin_nombre_25-3);mix-blend-mode:multiply;opacity:.5;}.cls-2{fill:url(#Degradado_sin_nombre_59);}.cls-2,.cls-3{mix-blend-mode:darken;opacity:.37;}.cls-4{fill:#e9fdff;}.cls-5{fill:#f79244;}.cls-6{fill:#fff;}.cls-7{fill:#111023;}.cls-8{fill:#5b2b89;}.cls-9{fill:#2a2a2a;}.cls-3{fill:url(#Degradado_sin_nombre_59-2);}.cls-10{fill:url(#Degradado_sin_nombre_87);mix-blend-mode:overlay;opacity:.38;}.cls-11{fill:url(#Degradado_sin_nombre_88);}.cls-12{fill:url(#Degradado_sin_nombre_86);}.cls-13{fill:url(#Degradado_sin_nombre_10);}.cls-14{fill:url(#Degradado_sin_nombre_25);}.cls-15{fill:url(#Degradado_sin_nombre_12);}.cls-16{isolation:isolate;}.cls-17{fill:url(#Degradado_sin_nombre_59-3);}.cls-18{fill:url(#Degradado_sin_nombre_59-6);}.cls-19{fill:url(#Degradado_sin_nombre_59-5);}.cls-20{fill:url(#Degradado_sin_nombre_59-7);}.cls-21{fill:url(#Degradado_sin_nombre_59-9);}.cls-22{fill:url(#Degradado_sin_nombre_59-4);}.cls-23{fill:url(#Degradado_sin_nombre_59-8);}.cls-24{fill:url(#Degradado_sin_nombre_12-4);}.cls-25{fill:url(#Degradado_sin_nombre_12-5);}.cls-26{fill:url(#Degradado_sin_nombre_12-2);}.cls-27{fill:url(#Degradado_sin_nombre_12-3);}.cls-28{fill:url(#Degradado_sin_nombre_10-4);}.cls-29{fill:url(#Degradado_sin_nombre_10-5);}.cls-30{fill:url(#Degradado_sin_nombre_10-2);}.cls-31{fill:url(#Degradado_sin_nombre_10-3);}.cls-32{fill:url(#Degradado_sin_nombre_25-4);}.cls-33{fill:url(#Degradado_sin_nombre_25-5);}.cls-34{fill:url(#Degradado_sin_nombre_25-2);}.cls-35{fill:url(#Degradado_sin_nombre_86-2);}.cls-36{fill:url(#Degradado_sin_nombre_86-3);}</style><linearGradient id="Degradado_sin_nombre_59" x1="248.81" y1="344.61" x2="264.99" y2="100.29" gradientTransform="matrix(1, 0, 0, 1, 0, 0)" gradientUnits="userSpaceOnUse"><stop offset="0" stop-color="#31d1d6"/><stop offset=".37" stop-color="#32ced8"/><stop offset=".62" stop-color="#35c5de"/><stop offset=".82" stop-color="#3cb6ea"/><stop offset="1" stop-color="#45a3fa"/></linearGradient><linearGradient id="Degradado_sin_nombre_59-2" x1="261.97" x2="278.15" y2="100.29" xlink:href="#Degradado_sin_nombre_59"/><linearGradient id="Degradado_sin_nombre_10" x1="99.57" y1="155.11" x2="99.57" y2="112.5" gradientTransform="matrix(1, 0, 0, 1, 0, 0)" gradientUnits="userSpaceOnUse"><stop offset="0" stop-color="#f9e6d9"/><stop offset=".12" stop-color="#fbf1ea"/><stop offset=".27" stop-color="#fdf9f6"/><stop offset=".48" stop-color="#fefdfd"/><stop offset="1" stop-color="#fff"/></linearGradient><linearGradient id="Degradado_sin_nombre_10-2" x1="391.67" y1="185.02" x2="394.37" y2="143.49" xlink:href="#Degradado_sin_nombre_10"/><linearGradient id="Degradado_sin_nombre_59-3" x1="79.15" y1="257.66" x2="192.29" y2="257.66" xlink:href="#Degradado_sin_nombre_59"/><linearGradient id="Degradado_sin_nombre_10-3" x1="126.13" y1="340.2" x2="125.05" y2="285.18" xlink:href="#Degradado_sin_nombre_10"/><linearGradient id="Degradado_sin_nombre_59-4" x1="326.32" y1="269.76" x2="439.45" y2="269.76" gradientTransform="translate(-45.32 76.29) rotate(-10.95)" xlink:href="#Degradado_sin_nombre_59"/><linearGradient id="Degradado_sin_nombre_10-4" x1="378.13" y1="335.25" x2="377.05" y2="280.24" xlink:href="#Degradado_sin_nombre_10"/><linearGradient id="Degradado_sin_nombre_59-5" x1="151.15" y1="188.19" x2="183.15" y2="179.92" xlink:href="#Degradado_sin_nombre_59"/><linearGradient id="Degradado_sin_nombre_59-6" x1="87.63" y1="157.8" x2="158.87" y2="157.8" xlink:href="#Degradado_sin_nombre_59"/><linearGradient id="Degradado_sin_nombre_88" x1="38.03" y1="16.12" x2="90.41" y2="16.12" gradientTransform="matrix(1, 0, 0, 1, 0, 0)" gradientUnits="userSpaceOnUse"><stop offset="0" stop-color="#51adc6"/><stop offset="0" stop-color="#54aec4"/><stop offset=".07" stop-color="#74beb4"/><stop offset=".13" stop-color="#8ecca7"/><stop offset=".21" stop-color="#a4d79c"/><stop offset=".3" stop-color="#b5e094"/><stop offset=".41" stop-color="#c1e68e"/><stop offset=".57" stop-color="#c8ea8a"/><stop offset="1" stop-color="#caeb8a"/></linearGradient><linearGradient id="Degradado_sin_nombre_25" x1="40.95" y1="10.06" x2="32.47" y2="10.06" gradientTransform="matrix(1, 0, 0, 1, 0, 0)" gradientUnits="userSpaceOnUse"><stop offset="0" stop-color="#8aebd6"/><stop offset=".46" stop-color="#88e9d6"/><stop offset=".63" stop-color="#84e2d9"/><stop offset=".75" stop-color="#7cd6de"/><stop offset=".84" stop-color="#71c5e5"/><stop offset=".92" stop-color="#63afee"/><stop offset=".99" stop-color="#5295f9"/><stop offset="1" stop-color="#5193fa"/></linearGradient><linearGradient id="Degradado_sin_nombre_59-7" x1="42.5" y1="15.14" x2="32.43" y2="15.14" xlink:href="#Degradado_sin_nombre_59"/><linearGradient id="Degradado_sin_nombre_25-2" x1="42.52" y1="20.98" x2="33.26" y2="20.98" xlink:href="#Degradado_sin_nombre_25"/><linearGradient id="Degradado_sin_nombre_59-8" x1="90.41" y1="15.61" x2="121.21" y2="15.61" xlink:href="#Degradado_sin_nombre_59"/><linearGradient id="Degradado_sin_nombre_86" x1="76.94" y1="25.24" x2="91.63" y2="25.24" gradientTransform="matrix(1, 0, 0, 1, 0, 0)" gradientUnits="userSpaceOnUse"><stop offset="0" stop-color="#f7be86"/><stop offset=".33" stop-color="#f7bc83"/><stop offset=".54" stop-color="#f7b67a"/><stop offset=".73" stop-color="#f7ac6b"/><stop offset=".89" stop-color="#f79e56"/><stop offset="1" stop-color="#f79244"/></linearGradient><linearGradient id="Degradado_sin_nombre_12" x1="163.69" y1="36.47" x2="163.21" y2="54.14" gradientTransform="matrix(1, 0, 0, 1, 0, 0)" gradientUnits="userSpaceOnUse"><stop offset="0" stop-color="#7b6ed6"/><stop offset=".48" stop-color="#796cd4"/><stop offset=".65" stop-color="#7268d0"/><stop offset=".78" stop-color="#6660c8"/><stop offset=".88" stop-color="#5555be"/><stop offset=".96" stop-color="#3f46b0"/><stop offset="1" stop-color="#333ea8"/></linearGradient><linearGradient id="Degradado_sin_nombre_12-2" x1="175.6" y1="36.7" x2="174.3" y2="77.71" xlink:href="#Degradado_sin_nombre_12"/><linearGradient id="Degradado_sin_nombre_12-3" x1="186.41" y1="37.1" x2="185.93" y2="54.76" xlink:href="#Degradado_sin_nombre_12"/><linearGradient id="Degradado_sin_nombre_12-4" x1="81.9" y1="74.34" x2="199.9" y2="74.34" xlink:href="#Degradado_sin_nombre_12"/><linearGradient id="Degradado_sin_nombre_86-2" x1="132.99" y1="24.52" x2="154.34" y2="24.52" xlink:href="#Degradado_sin_nombre_86"/><linearGradient id="Degradado_sin_nombre_87" x1="144.39" y1="65.95" x2="199.9" y2="65.95" gradientTransform="matrix(1, 0, 0, 1, 0, 0)" gradientUnits="userSpaceOnUse"><stop offset="0" stop-color="#3c0887"/><stop offset=".32" stop-color="#3e0987"/><stop offset=".53" stop-color="#470d87"/><stop offset=".71" stop-color="#561488"/><stop offset=".87" stop-color="#6b1f89"/><stop offset="1" stop-color="#822a8a"/></linearGradient><linearGradient id="Degradado_sin_nombre_86-3" x1="157.54" y1="29.08" x2="185.6" y2="29.08" xlink:href="#Degradado_sin_nombre_86"/><linearGradient id="Degradado_sin_nombre_25-3" x1="267.4" y1="409.03" x2="268.48" y2="334.61" xlink:href="#Degradado_sin_nombre_25"/><linearGradient id="Degradado_sin_nombre_25-4" x1="442.31" y1="404.26" x2="442.31" y2="338.73" xlink:href="#Degradado_sin_nombre_25"/><linearGradient id="Degradado_sin_nombre_25-5" x1="119.3" y1="404.26" x2="119.3" y2="338.73" xlink:href="#Degradado_sin_nombre_25"/><linearGradient id="Degradado_sin_nombre_59-9" x1="217.89" y1="281.65" x2="323.25" y2="281.65" gradientTransform="translate(56.11 -46.59) rotate(11.55)" xlink:href="#Degradado_sin_nombre_59"/><linearGradient id="Degradado_sin_nombre_10-5" x1="251.67" y1="337.73" x2="250.59" y2="282.72" xlink:href="#Degradado_sin_nombre_10"/><linearGradient id="Degradado_sin_nombre_12-5" x1="302.71" y1="202.43" x2="345.41" y2="202.43" xlink:href="#Degradado_sin_nombre_12"/></defs><g class="cls-16"><g id="BACKGROUND"><g><g><path class="cls-2" d="M65.06,330.6H13.57c-13.78-14.31-17.46-37.12-9.23-55.2,7.84-17.23,24.69-28.62,34.89-44.57,21.78-34.04,11.25-84.75,40.84-112.27,14.79-13.76,36.06-17.73,56.2-19.34s40.95-1.56,59.57-9.39c22.96-9.65,40.27-30.38,63.93-38.19,26.56-8.77,58.33,2.17,73.85,25.44,9.71,14.56,13.38,32.85,24.86,46.06,18.57,21.35,51.29,23.01,74.45,39.27,15.89,11.15,26.61,29.37,28.66,48.67,2.47,23.31-6.38,49.78,7.6,68.59,6.81,9.17,17.86,14.35,25.2,23.1,7.32,8.73,9.38,16.68,7.07,27.83H65.06Z"/><path class="cls-3" d="M78.21,330.6H26.73c-13.78-14.31-17.46-37.12-9.23-55.2,7.84-17.23,24.69-28.62,34.89-44.57,21.78-34.04,11.25-84.75,40.84-112.27,14.79-13.76,36.06-17.73,56.2-19.34s40.95-1.56,59.57-9.39c22.96-9.65,40.27-30.38,63.93-38.19,26.56-8.77,58.33,2.17,73.85,25.44,9.71,14.56,13.38,32.85,24.86,46.06,18.57,21.35,51.29,23.01,74.45,39.27,15.89,11.15,26.61,29.37,28.66,48.67,2.47,23.31-6.38,49.78,7.6,68.59,6.81,9.17,17.86,14.35,25.2,23.1,7.32,8.73,9.38,16.68,7.07,27.83H78.21Z"/></g><path class="cls-13" d="M196.7,154.31l-2.12,.07H3.12l-.46,.06c-1.9-12.7,8.04-25.6,20.55-29.02,10.94-2.99,23.74-.33,32.9-7.02,8.21-5.99,10.25-17.19,15.62-25.82,3.34-5.37,8.1-9.85,13.67-12.84,6.98-3.75,15.69-5.06,22.85-1.67,12.68,6.02,15.11,22.82,23.59,34.01,1.89,2.5,4.27,4.83,7.3,5.66,2.79,.77,5.75,.17,8.61-.34,9.37-1.65,20.61-1.5,26.44,6.02,2.74,3.54,3.72,8.08,5.24,12.28,1.52,4.21,4.01,8.53,8.22,10.04,2.02,.71,4.31,.73,6.09,1.92,2.14,1.43,2.83,3.98,2.96,6.65Z"/><path class="cls-30" d="M504.67,178.48h-223.27c-1.78-2.34-2-5.96-.73-8.74,1.65-3.65,5.09-6.13,8.52-8.19,3.43-2.07,7.08-3.97,9.65-7.04,4.93-5.89,4.64-14.34,5.73-21.94,1.28-9.02,5.06-17.95,11.88-24,2.7-2.4,5.83-4.3,9.11-5.82,9.35-4.35,20.93-5.44,29.67,.04,8.36,5.24,12.46,15.21,19.75,21.86,1.72,1.58,3.69,2.99,5.97,3.52,6.53,1.5,12.08-4.42,16.98-8.99,6.96-6.49,16.26-11.34,25.7-10.13,11.1,1.44,19.68,10.96,23.89,21.33,1.76,4.32,3.1,9.1,6.6,12.17,8.98,7.87,24.14-.95,34.61,4.77,3.93,2.15,6.56,6.06,8.66,10.02,3.5,6.61,5.97,13.77,7.28,21.14Z"/><g><path class="cls-17" d="M192.29,302.36h-16.06v28.23h-38.91v-28.23h-58.16v-28.93l60.66-88.69h36.41v88.19h16.06v29.43Zm-54.97-29.43v-16.96c0-3.19,.12-7.5,.35-12.92,.23-5.42,.41-8.26,.55-8.53h-1.1c-2.26,5.12-4.82,9.91-7.68,14.37l-16.16,24.04h24.04Z"/><path class="cls-31" d="M181.66,302.36h-16.06v28.23h-38.91v-28.23h-58.16v-28.93l60.66-88.69h36.41v88.19h16.06v29.43Zm-54.97-29.43v-16.96c0-3.19,.12-7.5,.35-12.92,.23-5.42,.41-8.26,.55-8.53h-1.1c-2.26,5.12-4.82,9.91-7.68,14.37l-16.16,24.04h24.04Z"/></g><g><path class="cls-22" d="M446.19,303.33l-5.59-28.9-10.43,2.02-5.34,1.03-16.74-86.59-35.76,6.92-42.71,98.59,5.49,28.41,57.11-11.05,3.25,16.83h39.63l-4.68-24.21,5.34-1.03,10.43-2.02Zm-69.99-16.44l-13.17,2.54,9.4-22.18,1.9-4.49c1.96-4.92,3.56-10.11,4.81-15.57l1.08-.2c-.08,.28,.28,3.11,1.08,8.48,.8,5.36,1.5,9.61,2.11,12.75l3.22,16.65-10.43,2.02Z"/><path class="cls-28" d="M435.76,305.35l-5.59-28.89-15.77,3.05-16.75-86.59-25.32,4.89-10.43,2.02-42.71,98.6,5.49,28.4,10.43-2.02,46.68-9.02,2.86,14.8h39.63l-4.29-22.19,10.43-2.02,5.34-1.03Zm-63.33-38.1c.19,1.09,.38,2.08,.55,2.99l3.22,16.65-23.61,4.57,11.31-26.68c1.96-4.91,3.56-10.1,4.81-15.56l1.08-.21c-.08,.29,.28,3.12,1.08,8.48,.57,3.82,1.09,7.08,1.56,9.76Z"/></g><g><g><path class="cls-19" d="M197.72,256.61h-23.75l-15.09-110.49s-21.8-23.82-46.83-28.28l23.84-2.57,53.73,1.46,8.11,139.88Z"/><path class="cls-7" d="M103.97,195.87s-13.5,19.76-7.51,36.72l25.11-36.72-3.26-4.38-14.35,4.38Z"/><path class="cls-7" d="M173.97,256.61l-.81,5.1s-7.16,1-7.56,11.22h18.61l10.11-9.87,.94-6.45h-21.3Z"/><path class="cls-18" d="M145.23,146.04l-29.77-1.11,4.84,45.59-20.18,7.23-11.63-56.3c-3.4-10.49,3.71-21.46,14.67-22.65l8.87-.96h.01c25.03,4.46,46.83,28.28,46.83,28.28l-13.64-.08Z"/></g><g><path class="cls-11" d="M90.41,18.8v1.33l-1.61,.21c-.41-.89-.86-1.6-1.3-1.99-2.15-1.86-3.65-3.32-5.19-2.43-1.16,.68-1.07,3.86-.96,5.36l-4.39,.56-38.9,4.93-.02-.07c2.52-.6,4.48-5.12,4.48-10.62s-1.9-9.9-4.37-10.6l52.27,5.9v7.43Z"/><path class="cls-14" d="M40.95,8.32c-.11,.16-.21,.32-.3,.5-.56,1.08-.82,2.32-1.51,3.31-.5,.74-1.24,1.31-2.06,1.63-.87,.34-1.83,.4-2.77,.52-.62,.08-1.26,.21-1.83,.47,.3-5.19,2.34-9.23,4.86-9.37l.81,.09c1.08,.31,2.06,1.33,2.8,2.85Z"/><path class="cls-20" d="M42.5,15.2s-.03,.04-.05,.05c-.64,.86-.95,1.93-1.54,2.81-.69,1.04-1.8,1.79-3.02,2.07-1.13,.25-2.34,.12-3.37,.63-.52,.27-.95,.69-1.26,1.18-.52-1.69-.83-3.71-.83-5.88,0-.45,0-.89,.05-1.33,.57-.26,1.21-.39,1.83-.47,.94-.13,1.89-.18,2.77-.52,.83-.32,1.56-.89,2.06-1.63,.69-.99,.96-2.23,1.51-3.31,.09-.17,.19-.33,.3-.5,.87,1.77,1.45,4.17,1.55,6.88Z"/><path class="cls-34" d="M42.52,16.07c0,5.5-1.96,10.03-4.48,10.62-.18,.05-.38,.07-.57,.07-1.76,0-3.31-1.91-4.21-4.81,.32-.5,.74-.91,1.26-1.18,1.03-.51,2.25-.38,3.37-.63,1.22-.28,2.33-1.04,3.02-2.07,.6-.88,.9-1.96,1.54-2.81,.02-.02,.03-.04,.05-.05,0,.29,.02,.58,.02,.87Z"/><path class="cls-7" d="M121.21,13.46h15.72c-1.64,.66-3.04,1.41-3.67,2-.5,.46-.28,1.3,.33,2.37h-12.39v-4.37Z"/><path class="cls-7" d="M156.06,16.09v1.74h-8.52c-.82-1.89-1.43-3.49-1.64-4.37h10.16v2.63Z"/><polygon class="cls-23" points="121.21 17.83 121.21 18.8 90.41 18.8 90.41 12.42 121.21 12.42 121.21 13.46 121.21 17.83"/><path class="cls-12" d="M91.63,29.69l-6.78,5.16s-8.23-8.63-7.9-13.01l4.39-.56c-.11-1.51-.2-4.69,.96-5.36,1.54-.89,3.04,.57,5.19,2.43,.44,.39,.88,1.1,1.3,1.99,1.59,3.4,2.83,9.36,2.83,9.36Z"/><path class="cls-8" d="M46,5.51c-.45-.99-1.92-.14-1.47,.84,2.79,6.1,2.43,12.81-.91,18.62-.54,.94,.92,1.79,1.46,.85,3.65-6.34,3.95-13.65,.92-20.3Z"/></g><g><polygon class="cls-15" points="166.76 36.5 166.76 41.73 160.5 35.81 166.76 36.5"/><path class="cls-26" d="M166.76,41.73l6.3,5.95,6.01,5.68s13.78-9.65,19.12-9.73c.38,0,.74,.02,1.09,.07,4.72,.67,7.6,6.12,6.77,11.35-.89,5.64-.73,11.87-6.16,12.88-5.43,1.02-29.34,6.82-29.34,6.82l-26.17-35.51,3.08-2.15,6.87-4.81,1.39-.97,3.02,2.85,1.75,1.65,6.26,5.91Z"/><path class="cls-27" d="M183.66,37.59l15.63,6.11c-.35-.05-.71-.08-1.09-.07-5.35,.08-19.12,9.73-19.12,9.73l-6.01-5.68,10.59-10.09Z"/><path class="cls-24" d="M199.9,67.94l-9.08,24.72-1.22,24.07s-1.06,.19-2.91,.45c-8.66,1.24-34.6,4.19-50.82-1.91l6.32-29.91-2.92-23.59-35.25,3.9-22.13-28.58,2.95-2.25,6.78-5.16,20.91,20.42,32.72-14.3c1.19,.86,2.22,1.28,2.22,1.28l-3.08,2.15,26.17,35.51s23.91-5.8,29.34-6.82Z"/><path class="cls-35" d="M154.34,32.29l-6.87,4.81s-1.03-.42-2.22-1.28c-1.55-1.11-3.38-2.94-3.61-5.52-.3-3.46-6.14-9.1-8.05-12.46-.61-1.07-.83-1.91-.33-2.37,.63-.6,2.03-1.34,3.67-2,3.63-1.44,8.48-2.43,8.92-.18,0,.05,.03,.12,.05,.18,.21,.88,.82,2.48,1.64,4.37,2.49,5.81,6.81,14.45,6.81,14.45Z"/><path class="cls-10" d="M190.82,92.66c-40.05-8.5-46.43-53.41-46.43-53.41l26.18,35.53,29.34-6.84-9.08,24.72Z"/></g><g><path class="cls-36" d="M183.43,15.76c.85-.23,1.7-.06,2.05,1.29,.79,3.09-2.68,6.81-2.68,6.81l.86,13.73-10.59,10.09,4.15-11.87-10.45,.69-6.26-.69-1.75-1.65s-1.22-11.39-1.22-18.07c0-1.54,.06-2.83,.23-3.67l.05-.32c7.32,1.24,17.48-1.62,17.48-1.62,0,0,1.42,13.87,3.37,14.11,1.95,.23,2.55-7.54,2.55-7.54,0,0,1.11-.99,2.21-1.29Z"/><path class="cls-7" d="M183.51,5.68l-.08,10.08c-1.1,.3-2.21,1.29-2.21,1.29,0,0-.6,7.77-2.55,7.54-1.95-.24-3.37-14.11-3.37-14.11,0,0-10.16,2.86-17.48,1.62h0c-2.3-.39-4.31-1.18-5.64-2.59-5.6-5.9-3.65-9.24,4.37-7.42,8.02,1.82,24.66-7.84,26.97,3.59Z"/><polygon class="cls-5" points="177.21 35.81 173.06 47.68 166.76 41.73 166.76 36.5 177.21 35.81"/><path class="cls-7" d="M157.12,13.93c1.61-.81,3.29-.9,4.98-.29,1.03,.37,.25,1.9-.77,1.53-1.07-.38-2.27-.31-3.28,.2-.97,.49-1.91-.94-.93-1.43Z"/><ellipse class="cls-7" cx="172.67" cy="17.98" rx="1.23" ry="1.82" transform="translate(-.7 9.04) rotate(-2.99)"/><path class="cls-7" d="M174.81,13.52c-1.69-.64-3.36-.56-4.99,.23-.99,.48-.06,1.91,.92,1.44,1.02-.49,2.23-.54,3.29-.14,1.02,.38,1.81-1.13,.78-1.52Z"/><path class="cls-5" d="M162.95,23.62c.55-2.58,1.88-5.21,2.78-7.7,.19-.52,.95-.13,.76,.38-.57,1.57-1.14,3.13-1.71,4.7-.2,.54-.68,1.44-.73,2.01-.19,1.95,.71,1.8,1.72,2.27,.5,.23,.11,1-.38,.76-1.24-.58-2.82-.66-2.44-2.43Z"/><path class="cls-7" d="M162.01,18.2c-.8-.64-1.71-1.07-2.73-1.2-.63-.08-.89,.89-.25,.97,.52,.07,1,.21,1.46,.43-.53,.17-1.07,.35-1.6,.52-.61,.2-.35,1.17,.26,.97,.88-.29,1.76-.57,2.64-.86,.32-.1,.54-.58,.23-.83Z"/><ellipse class="cls-6" cx="166.14" cy="31.25" rx="2.22" ry="3.21"/></g></g><g><path class="cls-1" d="M472.65,330.6H71.39s-21.59,14.33,10.51,16.76,82.16,4.72,80.93,15.64-30.22,8.76-30.22,28.04,133.7,14.83,133.7,14.83c0,0,75.53,.99,86.29-11.78,10.76-12.76-30.45-24.45-22.97-29.48s61.77,10.07,69.86-2.16-1.62-19.96,13.3-21.57c14.92-1.62,57.35,4.23,59.87-10.29Z"/><ellipse class="cls-32" cx="442.31" cy="355.99" rx="30.34" ry="8.63"/><ellipse class="cls-33" cx="119.3" cy="363.45" rx="26.52" ry="6.56"/><ellipse class="cls-4" cx="271.3" cy="389.02" rx="30.12" ry="5.8"/></g><g><g><path class="cls-21" d="M311.13,253.43c-6.18-14.13-17.77-22.93-34.77-26.4-1.85-.38-3.66-.68-5.43-.9-15-1.9-27.37,1.68-37.11,10.74-10.9,10.12-18.94,27.89-24.14,53.31-3.18,15.57-4.07,29.04-2.66,40.41h37.16c-.47-6.64,.84-17.5,3.92-32.56,3.33-16.29,6.63-27.29,9.9-33.01,1.9-3.32,4.05-5.51,6.45-6.57,1.73-.77,3.6-.95,5.59-.54,4.76,.98,7.5,4.85,8.22,11.61,.72,6.77-.54,18.07-3.77,33.9-2.43,11.87-4.87,20.92-7.31,27.17h40.74c1.89-5.85,3.55-12.29,4.98-19.32,.95-4.65,1.7-9.11,2.24-13.38,2.33-18.2,.99-33.02-4.01-44.46Z"/><path class="cls-29" d="M300.72,251.31c-5.55-12.69-15.48-21.09-29.79-25.18-1.61-.46-3.27-.87-4.99-1.22-17.46-3.57-31.64-.29-42.54,9.84-10.89,10.13-18.94,27.9-24.13,53.31-1.06,5.17-1.86,10.12-2.41,14.83-1.21,10.35-1.2,19.59,.04,27.7h37.11c-.05-.24-.08-.48-.11-.73-.78-6.47,.48-17.79,3.78-33.95,3.33-16.29,6.63-27.29,9.91-33,3.27-5.72,7.28-8.09,12.04-7.11,1.95,.4,3.56,1.28,4.82,2.65,1.85,1.98,2.97,4.96,3.4,8.95,.72,6.77-.54,18.07-3.77,33.9-2.72,13.28-5.45,23.04-8.19,29.29h40.93c2.16-6.4,4.05-13.54,5.67-21.43,4.99-24.44,4.4-43.72-1.77-57.85Z"/></g><polygon class="cls-9" points="329.09 156.01 328.84 156.2 302.71 176.54 286.4 189.23 272.82 226.81 269.05 225.45 283.04 186.78 326.64 152.85 329.09 156.01"/><path class="cls-25" d="M341.61,240.35c-2.97,3.53-7.02,5.95-10.99,8.3l-.27-.47c1.57-2.01,3.23-4.37,2.76-6.88-.33-1.71-1.59-3.07-2.88-4.22-2.19-1.93-4.63-3.56-6.72-5.59-2.09-2.03-3.86-4.58-4.2-7.47-.44-3.8,1.61-7.39,2.41-11.13,.32-1.5,.43-3.1-.17-4.51-1.34-3.18-5.39-3.91-8.6-5.19-2.87-1.16-5.57-3.31-6.37-6.3-1.16-4.34,1.93-8.78,1.51-13.25-.29-3.12-2.51-5.91-5.38-7.1l26.13-20.34c4.43,3.84,8.25,8.93,8.3,14.74,.02,3.68-1.47,7.18-2.53,10.7-.42,1.42-.78,2.9-.52,4.35,.41,2.22,2.18,3.9,3.81,5.47,3.37,3.23,6.76,7.16,6.7,11.83-.06,5.24-4.53,9.91-3.75,15.09,.5,3.31,3.05,5.95,4.07,9.13,1.4,4.4-.34,9.31-3.31,12.84Z"/></g></g></g></g></svg>