<svg xmlns="http://www.w3.org/2000/svg" version="1.1" xmlns:xlink="http://www.w3.org/1999/xlink" xmlns:svgjs="http://svgjs.dev/svgjs" viewBox="0 0 10.587233256683806 10.893102049699525"><g transform="matrix(1,0,0,1,0.8949050804903393,8.763696969209185)"><g><path d=" M 0.363 0.978 L 0.7215 0.978 L 0.7215 1.2225 L 0.039 1.2225 L 0.039 0.9899999999999999 L 0.3735 0.6255 L 0.042 0.6255 L 0.042 0.3809999999999999 L 0.7095 0.3809999999999999 L 0.7095 0.6134999999999999 L 0.363 0.978 M 1.007278564453125 1.1804999999999999 Q 0.907528564453125 1.128 0.850528564453125 1.0305 Q 0.793528564453125 0.9329999999999999 0.793528564453125 0.8009999999999999 Q 0.793528564453125 0.6704999999999999 0.851278564453125 0.573 Q 0.909028564453125 0.4754999999999999 1.008778564453125 0.42299999999999993 Q 1.108528564453125 0.37049999999999994 1.234528564453125 0.37049999999999994 Q 1.360528564453125 0.37049999999999994 1.4602785644531249 0.42299999999999993 Q 1.560028564453125 0.4754999999999999 1.617778564453125 0.573 Q 1.675528564453125 0.6704999999999999 1.675528564453125 0.8009999999999999 Q 1.675528564453125 0.9315 1.617778564453125 1.02975 Q 1.560028564453125 1.128 1.459528564453125 1.1804999999999999 Q 1.359028564453125 1.2329999999999999 1.2330285644531251 1.2329999999999999 Q 1.107028564453125 1.2329999999999999 1.007278564453125 1.1804999999999999 M 1.335778564453125 0.9322499999999999 Q 1.377028564453125 0.8864999999999998 1.377028564453125 0.8009999999999999 Q 1.377028564453125 0.7154999999999999 1.335778564453125 0.6704999999999999 Q 1.294528564453125 0.6255 1.234528564453125 0.6255 Q 1.174528564453125 0.6255 1.134028564453125 0.6704999999999999 Q 1.093528564453125 0.7154999999999999 1.093528564453125 0.8009999999999999 Q 1.093528564453125 0.8879999999999999 1.1325285644531249 0.9329999999999999 Q 1.171528564453125 0.978 1.2330285644531251 0.978 Q 1.294528564453125 0.978 1.335778564453125 0.9322499999999999 M 2.574008056640625 0.47024999999999995 Q 2.6595080566406253 0.567 2.6595080566406253 0.732 L 2.6595080566406253 1.2225 L 2.365508056640625 1.2225 L 2.365508056640625 0.7709999999999999 Q 2.365508056640625 0.699 2.328008056640625 0.65775 Q 2.290508056640625 0.6164999999999999 2.227508056640625 0.6164999999999999 Q 2.161508056640625 0.6164999999999999 2.124008056640625 0.65775 Q 2.086508056640625 0.699 2.086508056640625 0.7709999999999999 L 2.086508056640625 1.2225 L 1.792508056640625 1.2225 L 1.792508056640625 0.3809999999999999 L 2.086508056640625 0.3809999999999999 L 2.086508056640625 0.5009999999999999 Q 2.125508056640625 0.44399999999999995 2.191508056640625 0.40874999999999995 Q 2.257508056640625 0.37349999999999994 2.343008056640625 0.37349999999999994 Q 2.488508056640625 0.37349999999999994 2.574008056640625 0.47024999999999995 M 3.61796923828125 0.861 L 3.0614692382812496 0.861 Q 3.06596923828125 0.9299999999999999 3.0997192382812497 0.9637499999999999 Q 3.1334692382812497 0.9974999999999999 3.18596923828125 0.9974999999999999 Q 3.2594692382812496 0.9974999999999999 3.2909692382812494 0.9315 L 3.6044692382812498 0.9315 Q 3.58496923828125 1.0185 3.5287192382812496 1.0867499999999999 Q 3.4724692382812496 1.1549999999999998 3.3869692382812495 1.194 Q 3.30146923828125 1.2329999999999999 3.1979692382812495 1.2329999999999999 Q 3.0734692382812496 1.2329999999999999 2.9767192382812495 1.1804999999999999 Q 2.87996923828125 1.128 2.8252192382812495 1.0305 Q 2.7704692382812497 0.9329999999999999 2.7704692382812497 0.8009999999999999 Q 2.7704692382812497 0.6689999999999999 2.8244692382812495 0.5722499999999999 Q 2.87846923828125 0.4754999999999999 2.9752192382812495 0.42299999999999993 Q 3.0719692382812496 0.37049999999999994 3.1979692382812495 0.37049999999999994 Q 3.3224692382812497 0.37049999999999994 3.41846923828125 0.4214999999999999 Q 3.51446923828125 0.4724999999999999 3.5684692382812497 0.5677499999999999 Q 3.6224692382812496 0.6629999999999999 3.6224692382812496 0.7919999999999999 Q 3.6224692382812496 0.8264999999999999 3.61796923828125 0.861 M 3.3224692382812497 0.7184999999999999 Q 3.3224692382812497 0.6644999999999999 3.2864692382812497 0.6337499999999999 Q 3.2504692382812497 0.6029999999999999 3.19646923828125 0.6029999999999999 Q 3.1424692382812496 0.6029999999999999 3.1079692382812496 0.6322499999999999 Q 3.0734692382812496 0.6614999999999999 3.0629692382812497 0.7184999999999999 L 3.3224692382812497 0.7184999999999999 M 3.8947609863281247 1.19475 Q 3.8055109863281245 1.1564999999999999 3.7537609863281247 1.08975 Q 3.7020109863281245 1.023 3.6960109863281247 0.9389999999999998 L 3.9810109863281244 0.9389999999999998 Q 3.9870109863281247 0.9794999999999999 4.018510986328124 1.002 Q 4.050010986328124 1.0245 4.096510986328124 1.0245 Q 4.132510986328125 1.0245 4.153510986328125 1.0094999999999998 Q 4.174510986328125 0.9944999999999999 4.174510986328125 0.9704999999999999 Q 4.174510986328125 0.9389999999999998 4.140010986328124 0.9239999999999999 Q 4.105510986328125 0.9089999999999999 4.026010986328124 0.8909999999999999 Q 3.9360109863281245 0.8729999999999999 3.8760109863281245 0.8504999999999999 Q 3.8160109863281244 0.8279999999999998 3.7717609863281245 0.7769999999999999 Q 3.7275109863281246 0.726 3.7275109863281246 0.6389999999999999 Q 3.7275109863281246 0.564 3.7680109863281244 0.5032499999999999 Q 3.8085109863281246 0.4424999999999999 3.8872609863281244 0.40649999999999986 Q 3.9660109863281248 0.37049999999999994 4.0770109863281245 0.37049999999999994 Q 4.242010986328125 0.37049999999999994 4.336510986328125 0.4514999999999999 Q 4.431010986328125 0.5324999999999999 4.446010986328124 0.6644999999999999 L 4.180510986328125 0.6644999999999999 Q 4.173010986328125 0.6239999999999999 4.1452609863281245 0.60225 Q 4.117510986328124 0.5804999999999999 4.071010986328124 0.5804999999999999 Q 4.035010986328125 0.5804999999999999 4.016260986328125 0.5939999999999999 Q 3.9975109863281246 0.6074999999999999 3.9975109863281246 0.6315 Q 3.9975109863281246 0.6614999999999999 4.032010986328125 0.6772499999999999 Q 4.066510986328124 0.693 4.143010986328124 0.7094999999999999 Q 4.234510986328124 0.7289999999999999 4.295260986328125 0.7529999999999999 Q 4.3560109863281244 0.7769999999999999 4.401760986328124 0.8302499999999999 Q 4.447510986328124 0.8835 4.447510986328124 0.9749999999999999 Q 4.447510986328124 1.0485 4.4047609863281245 1.107 Q 4.362010986328125 1.1655 4.283260986328124 1.19925 Q 4.204510986328125 1.2329999999999999 4.098010986328124 1.2329999999999999 Q 3.9840109863281246 1.2329999999999999 3.8947609863281247 1.19475 M 4.743750732421875 1.19475 Q 4.654500732421875 1.1564999999999999 4.602750732421875 1.08975 Q 4.551000732421874 1.023 4.545000732421874 0.9389999999999998 L 4.830000732421874 0.9389999999999998 Q 4.836000732421875 0.9794999999999999 4.867500732421874 1.002 Q 4.899000732421874 1.0245 4.945500732421874 1.0245 Q 4.981500732421875 1.0245 5.002500732421875 1.0094999999999998 Q 5.023500732421875 0.9944999999999999 5.023500732421875 0.9704999999999999 Q 5.023500732421875 0.9389999999999998 4.989000732421874 0.9239999999999999 Q 4.954500732421875 0.9089999999999999 4.875000732421874 0.8909999999999999 Q 4.785000732421874 0.8729999999999999 4.725000732421875 0.8504999999999999 Q 4.665000732421874 0.8279999999999998 4.620750732421874 0.7769999999999999 Q 4.5765007324218745 0.726 4.5765007324218745 0.6389999999999999 Q 4.5765007324218745 0.564 4.617000732421874 0.5032499999999999 Q 4.657500732421874 0.4424999999999999 4.736250732421874 0.40649999999999986 Q 4.815000732421875 0.37049999999999994 4.926000732421874 0.37049999999999994 Q 5.0910007324218745 0.37049999999999994 5.1855007324218745 0.4514999999999999 Q 5.2800007324218745 0.5324999999999999 5.295000732421874 0.6644999999999999 L 5.029500732421875 0.6644999999999999 Q 5.0220007324218745 0.6239999999999999 4.994250732421874 0.60225 Q 4.966500732421874 0.5804999999999999 4.920000732421874 0.5804999999999999 Q 4.884000732421875 0.5804999999999999 4.865250732421875 0.5939999999999999 Q 4.846500732421874 0.6074999999999999 4.846500732421874 0.6315 Q 4.846500732421874 0.6614999999999999 4.8810007324218745 0.6772499999999999 Q 4.915500732421874 0.693 4.992000732421874 0.7094999999999999 Q 5.083500732421874 0.7289999999999999 5.144250732421875 0.7529999999999999 Q 5.205000732421874 0.7769999999999999 5.250750732421874 0.8302499999999999 Q 5.296500732421874 0.8835 5.296500732421874 0.9749999999999999 Q 5.296500732421874 1.0485 5.253750732421874 1.107 Q 5.211000732421875 1.1655 5.132250732421874 1.19925 Q 5.053500732421875 1.2329999999999999 4.947000732421874 1.2329999999999999 Q 4.8330007324218744 1.2329999999999999 4.743750732421875 1.19475 M 5.454740478515625 1.1917499999999999 Q 5.407490478515625 1.149 5.407490478515625 1.083 Q 5.407490478515625 1.017 5.454740478515625 0.9734999999999999 Q 5.501990478515625 0.9299999999999999 5.579990478515624 0.9299999999999999 Q 5.656490478515624 0.9299999999999999 5.703740478515624 0.9734999999999999 Q 5.750990478515624 1.017 5.750990478515624 1.083 Q 5.750990478515624 1.1475 5.703740478515624 1.1909999999999998 Q 5.656490478515624 1.2345 5.579990478515624 1.2345 Q 5.501990478515625 1.2345 5.454740478515625 1.1917499999999999 M 5.909278564453124 0.26024999999999987 Q 5.862028564453124 0.2174999999999998 5.862028564453124 0.1529999999999998 Q 5.862028564453124 0.08699999999999997 5.909278564453124 0.04349999999999987 Q 5.956528564453124 0 6.034528564453124 0 Q 6.111028564453124 0 6.158278564453124 0.04349999999999987 Q 6.205528564453124 0.08699999999999997 6.205528564453124 0.1529999999999998 Q 6.205528564453124 0.2174999999999998 6.158278564453124 0.26024999999999987 Q 6.111028564453124 0.30299999999999994 6.034528564453124 0.30299999999999994 Q 5.956528564453124 0.30299999999999994 5.909278564453124 0.26024999999999987 M 6.180028564453124 0.3809999999999999 L 6.180028564453124 1.2225 L 5.886028564453124 1.2225 L 5.886028564453124 0.3809999999999999 L 6.180028564453124 0.3809999999999999 M 7.126503662109374 0.47024999999999995 Q 7.212003662109375 0.567 7.212003662109375 0.732 L 7.212003662109375 1.2225 L 6.918003662109374 1.2225 L 6.918003662109374 0.7709999999999999 Q 6.918003662109374 0.699 6.8805036621093745 0.65775 Q 6.843003662109374 0.6164999999999999 6.780003662109374 0.6164999999999999 Q 6.714003662109374 0.6164999999999999 6.676503662109374 0.65775 Q 6.639003662109374 0.699 6.639003662109374 0.7709999999999999 L 6.639003662109374 1.2225 L 6.345003662109374 1.2225 L 6.345003662109374 0.3809999999999999 L 6.639003662109374 0.3809999999999999 L 6.639003662109374 0.5009999999999999 Q 6.678003662109374 0.44399999999999995 6.744003662109374 0.40874999999999995 Q 6.8100036621093745 0.37349999999999994 6.895503662109374 0.37349999999999994 Q 7.041003662109374 0.37349999999999994 7.126503662109374 0.47024999999999995 M 7.825464843749999 0.6255 L 7.693464843749999 0.6255 L 7.693464843749999 1.2225 L 7.397964843749999 1.2225 L 7.397964843749999 0.6255 L 7.306464843749999 0.6255 L 7.306464843749999 0.3809999999999999 L 7.397964843749999 0.3809999999999999 L 7.397964843749999 0.37349999999999994 Q 7.397964843749999 0.2114999999999998 7.493214843749999 0.12524999999999986 Q 7.588464843749999 0.038999999999999924 7.766964843749999 0.038999999999999924 Q 7.802964843749999 0.038999999999999924 7.822464843749999 0.04049999999999998 L 7.822464843749999 0.2909999999999999 Q 7.810464843749999 0.28949999999999987 7.789464843749999 0.28949999999999987 Q 7.741464843749999 0.28949999999999987 7.718964843749999 0.3112499999999999 Q 7.696464843749999 0.33299999999999985 7.693464843749999 0.3809999999999999 L 7.825464843749999 0.3809999999999999 L 7.825464843749999 0.6255 M 8.093193603515624 1.1804999999999999 Q 7.993443603515624 1.128 7.936443603515624 1.0305 Q 7.8794436035156235 0.9329999999999999 7.8794436035156235 0.8009999999999999 Q 7.8794436035156235 0.6704999999999999 7.937193603515624 0.573 Q 7.994943603515624 0.4754999999999999 8.094693603515625 0.42299999999999993 Q 8.194443603515625 0.37049999999999994 8.320443603515624 0.37049999999999994 Q 8.446443603515624 0.37049999999999994 8.546193603515624 0.42299999999999993 Q 8.645943603515624 0.4754999999999999 8.703693603515624 0.573 Q 8.761443603515623 0.6704999999999999 8.761443603515623 0.8009999999999999 Q 8.761443603515623 0.9315 8.703693603515624 1.02975 Q 8.645943603515624 1.128 8.545443603515624 1.1804999999999999 Q 8.444943603515624 1.2329999999999999 8.318943603515624 1.2329999999999999 Q 8.192943603515625 1.2329999999999999 8.093193603515624 1.1804999999999999 M 8.421693603515624 0.9322499999999999 Q 8.462943603515624 0.8864999999999998 8.462943603515624 0.8009999999999999 Q 8.462943603515624 0.7154999999999999 8.421693603515624 0.6704999999999999 Q 8.380443603515625 0.6255 8.320443603515624 0.6255 Q 8.260443603515624 0.6255 8.219943603515624 0.6704999999999999 Q 8.179443603515624 0.7154999999999999 8.179443603515624 0.8009999999999999 Q 8.179443603515624 0.8879999999999999 8.218443603515624 0.9329999999999999 Q 8.257443603515624 0.978 8.318943603515624 0.978 Q 8.380443603515625 0.978 8.421693603515624 0.9322499999999999" fill="#008720" fill-rule="nonzero"></path></g><g></g><g clip-path="url(#SvgjsClipPath1002)"><g clip-path="url(#SvgjsClipPath1000349b209e-3e25-4cda-9e3d-08c2b3fe24d1)"><path d=" M 2.8490492776861505 2.284010182187888 C 2.849811156875022 2.2832483029990147 2.850573036063894 2.282486423810143 2.852096794441638 2.2817245446212713 L 2.8490492776861505 2.284010182187888 L 2.8490492776861505 2.284010182187888 Z" fill="#00fb2b" transform="matrix(1,0,0,1,0,0)" fill-rule="nonzero"></path></g><g clip-path="url(#SvgjsClipPath1000349b209e-3e25-4cda-9e3d-08c2b3fe24d1)"><path d=" M 6.15560495739013 -5.9915215673385225 C 6.146462407123666 -5.9915215673385225 6.137319856857204 -5.995330963282882 6.131224823346228 -6.002187875982729 L 5.709905631900076 -6.468457939572322 C 5.697715564878127 -6.482171764972016 5.698477444066999 -6.502742503071556 5.712191269466691 -6.514932570093507 C 5.725905094866386 -6.527122637115457 5.746475832965928 -6.526360757926585 5.758665899987877 -6.512646932526891 L 6.17998509143403 -6.046376868937298 C 6.19217515845598 -6.032663043537603 6.191413279267108 -6.012092305438063 6.1776994538674135 -5.999902238416112 C 6.17160442035644 -5.99456908409401 6.163223749278849 -5.9915215673385225 6.15560495739013 -5.9915215673385225 Z" fill="#008e28" transform="matrix(1,0,0,1,0,0)" fill-rule="nonzero"></path></g><g clip-path="url(#SvgjsClipPath1000349b209e-3e25-4cda-9e3d-08c2b3fe24d1)"><path d=" M 5.402868318784708 -5.350781169497267 C 5.393725768518245 -5.350781169497267 5.384583218251782 -5.354590565441626 5.3784881847408075 -5.361447478141473 L 4.957168993294656 -5.827717541731067 C 4.9449789262727055 -5.841431367130761 4.945740805461577 -5.862002105230301 4.959454630861272 -5.874192172252252 C 4.973168456260964 -5.8863822392742025 4.993739194360506 -5.88562036008533 5.005929261382456 -5.871906534685636 L 5.427248452828609 -5.405636471096043 C 5.439438519850558 -5.391922645696349 5.438676640661686 -5.371351907596808 5.424962815261992 -5.359161840574858 C 5.4188677817510165 -5.353828686252754 5.410487110673427 -5.350781169497267 5.402868318784708 -5.350781169497267 Z" fill="#00b738" transform="matrix(1,0,0,1,0,0)" fill-rule="nonzero"></path></g><g clip-path="url(#SvgjsClipPath1000349b209e-3e25-4cda-9e3d-08c2b3fe24d1)"><path d=" M 6.280553144365118 -5.3980176792073244 C 6.271410594098654 -5.3980176792073244 6.262268043832194 -5.401827075151683 6.256173010321218 -5.40868398785153 L 5.834853818875066 -5.874954051441124 C 5.822663751853115 -5.888667876840818 5.823425631041987 -5.909238614940358 5.837139456441681 -5.9214286819623085 C 5.850853281841374 -5.933618748984259 5.871424019940916 -5.932856869795387 5.883614086962867 -5.9191430443956925 L 6.304933278409019 -5.452872980806099 C 6.317123345430968 -5.439159155406405 6.316361466242096 -5.418588417306864 6.3026476408424035 -5.406398350284914 C 6.296552607331428 -5.401065195962811 6.288933815442709 -5.3980176792073244 6.280553144365118 -5.3980176792073244 Z" fill="#00b738" transform="matrix(1,0,0,1,0,0)" fill-rule="nonzero"></path></g><g clip-path="url(#SvgjsClipPath1000349b209e-3e25-4cda-9e3d-08c2b3fe24d1)"><path d=" M 5.616956370857707 -5.796480494987319 C 5.607813820591245 -5.796480494987319 5.5986712703247825 -5.80028989093168 5.592576236813807 -5.807146803631526 L 5.171257045367655 -6.273416867221119 C 5.159066978345704 -6.2871306926208135 5.159828857534576 -6.307701430720354 5.17354268293427 -6.319891497742304 C 5.187256508333965 -6.3320815647642545 5.207827246433505 -6.331319685575383 5.220017313455456 -6.317605860175688 L 5.6413365049016075 -5.8513357965860955 C 5.653526571923559 -5.837621971186401 5.652764692734685 -5.81705123308686 5.639050867334992 -5.80486116606491 C 5.632955833824017 -5.7987661325539355 5.624575162746426 -5.796480494987319 5.616956370857707 -5.796480494987319 Z" fill="#00b738" transform="matrix(1,0,0,1,0,0)" fill-rule="nonzero"></path></g><g clip-path="url(#SvgjsClipPath1000349b209e-3e25-4cda-9e3d-08c2b3fe24d1)"><path d=" M 5.085926576214003 -6.391508141496262 C 5.076784025947541 -6.391508141496262 5.067641475681079 -6.395317537440621 5.061546442170103 -6.402174450140468 L 4.943455167894961 -6.5324557914375605 C 4.931265100873011 -6.546169616837254 4.932026980061883 -6.566740354936796 4.945740805461577 -6.578930421958745 C 4.959454630861272 -6.591120488980695 4.980025368960812 -6.590358609791823 4.992215435982763 -6.57664478439213 L 5.110306710257904 -6.446363443095038 C 5.122496777279855 -6.432649617695343 5.121734898090983 -6.412078879595803 5.1080210726912885 -6.3998888125738524 C 5.101926039180314 -6.394555658251749 5.093545368102722 -6.391508141496262 5.085926576214003 -6.391508141496262 Z" fill="#008e28" transform="matrix(1,0,0,1,0,0)" fill-rule="nonzero"></path></g><g clip-path="url(#SvgjsClipPath1000349b209e-3e25-4cda-9e3d-08c2b3fe24d1)"><path d=" M 6.656159584478958 -4.642233523846414 C 6.647017034212494 -4.642233523846414 6.637874483946032 -4.646042919790774 6.631779450435056 -4.652899832490621 L 6.210460258988904 -5.119169896080214 C 6.198270191966955 -5.132883721479908 6.199032071155827 -5.153454459579449 6.212745896555521 -5.165644526601399 C 6.226459721955214 -5.177834593623349 6.247030460054756 -5.177072714434477 6.259220527076707 -5.163358889034784 L 6.6805397185228585 -4.69708882544519 C 6.692729785544808 -4.683375000045496 6.691967906355936 -4.662804261945956 6.678254080956242 -4.650614194924005 C 6.672159047445268 -4.645281040601902 6.663778376367677 -4.642233523846414 6.656159584478958 -4.642233523846414 Z" fill="#008e28" transform="matrix(1,0,0,1,0,0)" fill-rule="nonzero"></path></g><g clip-path="url(#SvgjsClipPath1000349b209e-3e25-4cda-9e3d-08c2b3fe24d1)"><path d=" M 6.125129789835254 -5.238023049544228 C 6.11598723956879 -5.238023049544228 6.106844689302328 -5.241832445488588 6.100749655791352 -5.248689358188434 L 5.982658381516211 -5.378970699485527 C 5.97046831449426 -5.392684524885221 5.971230193683134 -5.413255262984762 5.9849440190828265 -5.425445330006712 C 5.998657844482519 -5.437635397028663 6.019228582582061 -5.436873517839791 6.031418649604012 -5.423159692440096 L 6.149509923879155 -5.292878351143004 C 6.161699990901104 -5.27916452574331 6.160938111712232 -5.258593787643769 6.1472242863125395 -5.246403720621819 C 6.141129252801564 -5.241070566299716 6.132748581723973 -5.238023049544228 6.125129789835254 -5.238023049544228 Z" fill="#00b738" transform="matrix(1,0,0,1,0,0)" fill-rule="nonzero"></path></g><g clip-path="url(#SvgjsClipPath1000349b209e-3e25-4cda-9e3d-08c2b3fe24d1)"><path d=" M 6.853486294396776 -4.026635139237932 C 6.844343744130313 -4.026635139237932 6.835201193863851 -4.030444535182291 6.829106160352875 -4.037301447882138 L 6.4077869689067235 -4.503571511471732 C 6.3955969018847725 -4.517285336871425 6.396358781073644 -4.537856074970966 6.410072606473339 -4.550046141992916 C 6.423786431873033 -4.562236209014866 6.444357169972573 -4.5614743298259945 6.456547236994524 -4.547760504426301 L 6.877866428440676 -4.081490440836707 C 6.890056495462627 -4.067776615437014 6.889294616273755 -4.047205877337473 6.875580790874061 -4.035015810315523 C 6.869485757363085 -4.029682655993419 6.8611050862854945 -4.026635139237932 6.853486294396776 -4.026635139237932 Z" fill="#00fb2b" transform="matrix(1,0,0,1,0,0)" fill-rule="nonzero"></path></g><g clip-path="url(#SvgjsClipPath1000349b209e-3e25-4cda-9e3d-08c2b3fe24d1)"><path d=" M 6.322456499753072 -4.622424664935746 C 6.313313949486609 -4.622424664935746 6.304171399220147 -4.626234060880105 6.298076365709171 -4.633090973579952 L 6.17998509143403 -4.763372314877044 C 6.167795024412079 -4.777086140276738 6.168556903600951 -4.797656878376279 6.182270729000644 -4.809846945398229 C 6.195984554400338 -4.8220370124201795 6.21655529249988 -4.821275133231307 6.228745359521829 -4.807561307831614 L 6.346836633796972 -4.677279966534521 C 6.359026700818923 -4.663566141134828 6.358264821630051 -4.642995403035286 6.344550996230357 -4.630805336013337 C 6.338455962719381 -4.625472181691233 6.330075291641791 -4.622424664935746 6.322456499753072 -4.622424664935746 Z" fill="#00b738" transform="matrix(1,0,0,1,0,0)" fill-rule="nonzero"></path></g><g clip-path="url(#SvgjsClipPath1000349b209e-3e25-4cda-9e3d-08c2b3fe24d1)"><path d=" M 5.877519053451891 -5.158787613901552 C 5.868376503185429 -5.158787613901552 5.8592339529189665 -5.162597009845912 5.853138919407991 -5.169453922545759 L 5.431819727961839 -5.635723986135352 C 5.419629660939888 -5.649437811535046 5.42039154012876 -5.670008549634587 5.434105365528454 -5.682198616656537 C 5.447819190928149 -5.694388683678488 5.468389929027689 -5.6936268044896154 5.48057999604964 -5.679912979089922 L 5.901899187495792 -5.213642915500328 C 5.914089254517743 -5.199929090100634 5.913327375328869 -5.179358352001094 5.899613549929176 -5.167168284979143 C 5.893518516418201 -5.16183513065704 5.88513784534061 -5.158787613901552 5.877519053451891 -5.158787613901552 Z" fill="#00b738" transform="matrix(1,0,0,1,0,0)" fill-rule="nonzero"></path></g><g clip-path="url(#SvgjsClipPath1000349b209e-3e25-4cda-9e3d-08c2b3fe24d1)"><path d=" M 5.346489258808188 -5.754577139599366 C 5.337346708541725 -5.754577139599366 5.328204158275263 -5.758386535543726 5.322109124764287 -5.765243448243572 L 5.204017850489146 -5.895524789540665 C 5.191827783467195 -5.909238614940358 5.192589662656067 -5.9298093530399 5.206303488055761 -5.941999420061849 C 5.220017313455456 -5.9541894870838 5.240588051554996 -5.953427607894928 5.252778118576947 -5.939713782495234 L 5.3708693928520885 -5.809432441198142 C 5.383059459874039 -5.795718615798448 5.382297580685167 -5.775147877698907 5.368583755285473 -5.762957810676957 C 5.362488721774498 -5.757624656354853 5.354869929885779 -5.754577139599366 5.346489258808188 -5.754577139599366 Z" fill="#008e28" transform="matrix(1,0,0,1,0,0)" fill-rule="nonzero"></path></g><g clip-path="url(#SvgjsClipPath1000349b209e-3e25-4cda-9e3d-08c2b3fe24d1)"><path d=" M 5.52476898900421 -6.237608545344141 C 5.515626438737746 -6.237608545344141 5.5064838884712834 -6.241417941288501 5.50038885496031 -6.248274853988347 L 5.382297580685167 -6.37855619528544 C 5.370107513663216 -6.3922700206851335 5.3708693928520885 -6.412840758784674 5.384583218251782 -6.425030825806624 C 5.398297043651477 -6.437220892828575 5.418867781751017 -6.436459013639703 5.4310578487729675 -6.422745188240009 L 5.54914912304811 -6.292463846942916 C 5.56133919007006 -6.278750021543223 5.560577310881188 -6.258179283443682 5.546863485481495 -6.245989216421732 C 5.540006572781648 -6.240656062099628 5.532387780892929 -6.237608545344141 5.52476898900421 -6.237608545344141 Z" fill="#00b738" transform="matrix(1,0,0,1,0,0)" fill-rule="nonzero"></path></g><g clip-path="url(#SvgjsClipPath1000349b209e-3e25-4cda-9e3d-08c2b3fe24d1)"><path d=" M 6.764346429298765 -5.286021438443157 C 6.755203879032303 -5.286021438443157 6.74606132876584 -5.289830834387517 6.739966295254865 -5.296687747087363 L 6.621875020979722 -5.426969088384456 C 6.609684953957773 -5.4406829137841495 6.610446833146645 -5.461253651883691 6.624160658546337 -5.47344371890564 C 6.637874483946032 -5.485633785927591 6.658445222045572 -5.48487190673872 6.670635289067523 -5.471158081339025 L 6.788726563342665 -5.340876740041933 C 6.8009166303646165 -5.327162914642239 6.800154751175743 -5.306592176542697 6.78644092577605 -5.294402109520748 C 6.779584013076203 -5.288307076009772 6.771965221187484 -5.286021438443157 6.764346429298765 -5.286021438443157 Z" fill="#00fb2b" transform="matrix(1,0,0,1,0,0)" fill-rule="nonzero"></path></g><g clip-path="url(#SvgjsClipPath1000349b209e-3e25-4cda-9e3d-08c2b3fe24d1)"><path d=" M 6.971577568671918 -4.285674063454373 C 6.962435018405456 -4.285674063454373 6.953292468138994 -4.289483459398731 6.947197434628018 -4.296340372098578 L 6.829106160352875 -4.4266217133956705 C 6.816916093330924 -4.440335538795365 6.817677972519796 -4.460906276894906 6.8313917979194905 -4.473096343916856 C 6.845105623319185 -4.485286410938807 6.865676361418725 -4.484524531749935 6.877866428440676 -4.470810706350241 L 6.995957702715817 -4.340529365053149 C 7.008147769737768 -4.326815539653454 7.007385890548896 -4.306244801553913 6.993672065149202 -4.294054734531963 C 6.987577031638228 -4.288721580209861 6.979196360560637 -4.285674063454373 6.971577568671918 -4.285674063454373 Z" fill="#00b738" transform="matrix(1,0,0,1,0,0)" fill-rule="nonzero"></path></g><g clip-path="url(#SvgjsClipPath1000349b209e-3e25-4cda-9e3d-08c2b3fe24d1)"><path d=" M 6.528925759937353 -5.583916201292064 C 6.519783209670891 -5.583916201292064 6.510640659404428 -5.587725597236424 6.504545625893453 -5.59458250993627 L 6.38645435161831 -5.724863851233363 C 6.374264284596359 -5.7385776766330565 6.375026163785231 -5.759148414732598 6.388739989184925 -5.7713384817545474 C 6.40245381458462 -5.7835285487764985 6.42302455268416 -5.782766669587627 6.435214619706111 -5.769052844187932 L 6.553305893981252 -5.63877150289084 C 6.565495961003203 -5.625057677491146 6.564734081814331 -5.604486939391605 6.5510202564146365 -5.592296872369655 C 6.544925222903663 -5.586963718047551 6.537306431014944 -5.583916201292064 6.528925759937353 -5.583916201292064 Z" fill="#00b738" transform="matrix(1,0,0,1,0,0)" fill-rule="nonzero"></path></g><g clip-path="url(#SvgjsClipPath1000349b209e-3e25-4cda-9e3d-08c2b3fe24d1)"><path d=" M 5.725143215677514 -6.013616063815807 C 5.716000665411052 -6.013616063815807 5.706858115144589 -6.017425459760166 5.700763081633614 -6.024282372460013 L 5.642098384090479 -6.089803982702995 C 5.629908317068528 -6.103517808102689 5.6306701962574 -6.1240885462022305 5.644384021657094 -6.136278613224181 C 5.658097847056787 -6.148468680246131 5.678668585156329 -6.147706801057258 5.690858652178278 -6.133992975657565 L 5.749523349721414 -6.068471365414583 C 5.7617134167433655 -6.054757540014888 5.760951537554492 -6.0341868019153475 5.747237712154799 -6.021996734893397 C 5.740380799454952 -6.0166635805712945 5.732762007566233 -6.013616063815807 5.725143215677514 -6.013616063815807 Z" fill="#00fb2b" transform="matrix(1,0,0,1,0,0)" fill-rule="nonzero"></path></g><g clip-path="url(#SvgjsClipPath1000349b209e-3e25-4cda-9e3d-08c2b3fe24d1)"><path d=" M 6.852724415207904 -3.695979571267533 C 6.8435818649414415 -3.695979571267533 6.834439314674979 -3.6997889672118927 6.828344281164004 -3.70664587991174 L 6.710253006888861 -3.836927221208832 C 6.698062939866912 -3.8506410466085264 6.698824819055783 -3.871211784708067 6.712538644455476 -3.8834018517300173 C 6.7262524698551704 -3.895591918751968 6.74682320795471 -3.8948300395630957 6.759013274976661 -3.881116214163402 L 6.877104549251804 -3.75083487286631 C 6.889294616273755 -3.7371210474666157 6.888532737084882 -3.716550309367075 6.874818911685189 -3.7043602423451247 C 6.8687238781742135 -3.699027088023022 6.860343207096623 -3.695979571267533 6.852724415207904 -3.695979571267533 Z" fill="#00b738" transform="matrix(1,0,0,1,0,0)" fill-rule="nonzero"></path></g><g clip-path="url(#SvgjsClipPath1000349b209e-3e25-4cda-9e3d-08c2b3fe24d1)"><path d=" M 7.05309864188121 -3.4719870897391996 C 7.0439560916147475 -3.4719870897391996 7.034813541348285 -3.475796485683559 7.02871850783731 -3.4826533983834063 L 6.970053810294175 -3.548175008626388 C 6.957863743272224 -3.5618888340260817 6.958625622461096 -3.5824595721256234 6.97233944786079 -3.5946496391475735 C 6.986053273260483 -3.6068397061695237 7.006624011360024 -3.606077826980652 7.018814078381974 -3.5923640015809584 L 7.07747877592511 -3.5268423913379756 C 7.089668842947059 -3.513128565938282 7.088906963758188 -3.4925578278387412 7.075193138358495 -3.4803677608167902 C 7.069098104847519 -3.4750346064946873 7.060717433769929 -3.4719870897391996 7.05309864188121 -3.4719870897391996 Z" fill="#00fb2b" transform="matrix(1,0,0,1,0,0)" fill-rule="nonzero"></path></g><g clip-path="url(#SvgjsClipPath1000349b209e-3e25-4cda-9e3d-08c2b3fe24d1)"><path d=" M 7.101097030780139 -4.477667619050088 C 7.0919544805136745 -4.477667619050088 7.082811930247212 -4.4814770149944465 7.076716896736237 -4.488333927694294 L 6.845867502508057 -4.7443253351552475 C 6.833677435486107 -4.758039160554941 6.834439314674979 -4.778609898654482 6.848153140074672 -4.790799965676432 C 6.861866965474366 -4.802990032698382 6.882437703573908 -4.80222815350951 6.894627770595857 -4.788514328109816 L 7.125477164824039 -4.532522920648863 C 7.137667231845988 -4.5188090952491695 7.1369053526571165 -4.498238357149628 7.123191527257424 -4.486048290127679 C 7.117096493746448 -4.480715135805575 7.108715822668858 -4.477667619050088 7.101097030780139 -4.477667619050088 Z" fill="#00b738" transform="matrix(1,0,0,1,0,0)" fill-rule="nonzero"></path></g><g clip-path="url(#SvgjsClipPath1000349b209e-3e25-4cda-9e3d-08c2b3fe24d1)"><path d=" M 7.101097030780139 -4.903558085629472 C 7.0919544805136745 -4.903558085629472 7.082811930247212 -4.90736748157383 7.076716896736237 -4.914224394273678 L 6.845867502508057 -5.170215801734631 C 6.833677435486107 -5.183929627134324 6.834439314674979 -5.204500365233866 6.848153140074672 -5.216690432255816 C 6.861866965474366 -5.228880499277766 6.882437703573908 -5.228118620088894 6.894627770595857 -5.2144047946892 L 7.125477164824039 -4.958413387228246 C 7.137667231845988 -4.944699561828553 7.1369053526571165 -4.924128823729012 7.123191527257424 -4.911938756707062 C 7.117096493746448 -4.905843723196087 7.108715822668858 -4.903558085629472 7.101097030780139 -4.903558085629472 Z" fill="#00b738" transform="matrix(1,0,0,1,0,0)" fill-rule="nonzero"></path></g><g clip-path="url(#SvgjsClipPath1000349b209e-3e25-4cda-9e3d-08c2b3fe24d1)"><path d=" M 6.534258914259457 -5.107741708247136 C 6.5251163639929946 -5.107741708247136 6.515973813726532 -5.111551104191496 6.509878780215557 -5.118408016891342 L 6.391787505940414 -5.248689358188435 C 6.379597438918463 -5.262403183588129 6.380359318107335 -5.28297392168767 6.394073143507029 -5.29516398870962 C 6.4077869689067235 -5.307354055731571 6.428357707006263 -5.306592176542699 6.440547774028214 -5.292878351143004 L 6.558639048303355 -5.162597009845912 C 6.5708291153253064 -5.148883184446218 6.570067236136435 -5.128312446346677 6.55635341073674 -5.116122379324727 C 6.5502583772257665 -5.1100273458137515 6.541877706148176 -5.107741708247136 6.534258914259457 -5.107741708247136 Z" fill="#00b738" transform="matrix(1,0,0,1,0,0)" fill-rule="nonzero"></path></g><g clip-path="url(#SvgjsClipPath1000349b209e-3e25-4cda-9e3d-08c2b3fe24d1)"><path d=" M 6.734633140932761 -4.88298734752993 C 6.725490590666299 -4.88298734752993 6.716348040399836 -4.88679674347429 6.710253006888861 -4.893653656174137 L 6.651588309345726 -4.959175266417119 C 6.639398242323775 -4.972889091816812 6.640160121512647 -4.993459829916354 6.653873946912341 -5.005649896938303 C 6.667587772312034 -5.017839963960254 6.688158510411576 -5.0170780847713825 6.700348577433527 -5.003364259371688 L 6.759013274976661 -4.937842649128706 C 6.771203341998612 -4.924128823729012 6.770441462809741 -4.903558085629472 6.756727637410046 -4.891368018607521 C 6.750632603899071 -4.886034864285418 6.74225193282148 -4.88298734752993 6.734633140932761 -4.88298734752993 Z" fill="#00fb2b" transform="matrix(1,0,0,1,0,0)" fill-rule="nonzero"></path></g><g clip-path="url(#SvgjsClipPath1000349b209e-3e25-4cda-9e3d-08c2b3fe24d1)"><path d=" M 6.562448444247716 -4.026635139237932 C 6.553305893981252 -4.026635139237932 6.544163343714791 -4.030444535182291 6.538068310203814 -4.037301447882138 L 6.116749118757664 -4.503571511471732 C 6.104559051735713 -4.517285336871425 6.105320930924584 -4.537856074970966 6.119034756324279 -4.550046141992916 C 6.1327485817239715 -4.562236209014866 6.153319319823513 -4.5614743298259945 6.165509386845464 -4.547760504426301 L 6.586828578291616 -4.08225232002558 C 6.599018645313567 -4.068538494625885 6.598256766124695 -4.0479677565263446 6.584542940725001 -4.035777689504394 C 6.577686028025154 -4.029682655993419 6.570067236136435 -4.026635139237932 6.562448444247716 -4.026635139237932 Z" fill="#008e28" transform="matrix(1,0,0,1,0,0)" fill-rule="nonzero"></path></g><g clip-path="url(#SvgjsClipPath1000349b209e-3e25-4cda-9e3d-08c2b3fe24d1)"><path d=" M 5.805902409697934 -4.8669878845636205 C 5.7967598594314715 -4.8669878845636205 5.787617309165009 -4.87079728050798 5.781522275654034 -4.877654193207826 L 5.663431001378891 -5.007935534504919 C 5.651240934356942 -5.021649359904613 5.652002813545813 -5.0422200980041545 5.665716638945508 -5.054410165026104 C 5.6794304643452005 -5.066600232048055 5.700001202444742 -5.065838352859183 5.712191269466691 -5.052124527459489 L 5.830282543741834 -4.921843186162397 C 5.842472610763785 -4.908129360762702 5.841710731574912 -4.887558622663161 5.827996906175219 -4.875368555641211 C 5.821901872664245 -4.869273522130236 5.813521201586653 -4.8669878845636205 5.805902409697934 -4.8669878845636205 Z" fill="#008e28" transform="matrix(1,0,0,1,0,0)" fill-rule="nonzero"></path></g><g clip-path="url(#SvgjsClipPath1000349b209e-3e25-4cda-9e3d-08c2b3fe24d1)"><path d=" M 6.00627663637124 -4.642233523846414 C 5.9971340861047775 -4.642233523846414 5.987991535838315 -4.646042919790774 5.98189650232734 -4.652899832490621 L 5.923231804784203 -4.718421442733604 C 5.911041737762254 -4.732135268133296 5.911803616951126 -4.752706006232838 5.925517442350818 -4.764896073254788 C 5.939231267750513 -4.777086140276738 5.9598020058500545 -4.776324261087867 5.971992072872004 -4.762610435688172 L 6.03065677041514 -4.69708882544519 C 6.042846837437089 -4.683375000045496 6.042084958248218 -4.662804261945956 6.028371132848525 -4.650614194924005 C 6.0222760993375495 -4.645281040601902 6.013895428259959 -4.642233523846414 6.00627663637124 -4.642233523846414 Z" fill="#00b738" transform="matrix(1,0,0,1,0,0)" fill-rule="nonzero"></path></g><g clip-path="url(#SvgjsClipPath1000349b209e-3e25-4cda-9e3d-08c2b3fe24d1)"><path d=" M 7.05309864188121 -3.7942619866320078 C 7.0439560916147475 -3.7942619866320078 7.034813541348285 -3.7980713825763672 7.02871850783731 -3.8049282952762136 L 6.970053810294175 -3.870449905519196 C 6.957863743272224 -3.88416373091889 6.958625622461096 -3.9047344690184307 6.97233944786079 -3.9169245360403813 C 6.986053273260483 -3.9291146030623314 7.006624011360024 -3.9283527238734597 7.018814078381974 -3.9146388984737657 L 7.07747877592511 -3.849117288230784 C 7.089668842947059 -3.8354034628310893 7.088906963758188 -3.8148327247315486 7.075193138358495 -3.8026426577095984 C 7.069098104847519 -3.7973095033874946 7.060717433769929 -3.7942619866320078 7.05309864188121 -3.7942619866320078 Z" fill="#00b738" transform="matrix(1,0,0,1,0,0)" fill-rule="nonzero"></path></g><g clip-path="url(#SvgjsClipPath1000349b209e-3e25-4cda-9e3d-08c2b3fe24d1)"><path d=" M 7.159761728323275 -4.095966145425273 C 7.150619178056811 -4.095966145425273 7.1414766277903485 -4.099775541369633 7.135381594279373 -4.10663245406948 L 7.076716896736237 -4.172154064312462 C 7.064526829714287 -4.185867889712156 7.065288708903159 -4.206438627811696 7.0790025343028535 -4.218628694833647 C 7.092716359702546 -4.2308187618555975 7.113287097802088 -4.230056882666725 7.125477164824039 -4.216343057267031 L 7.184141862367174 -4.150821447024049 C 7.196331929389125 -4.137107621624355 7.195570050200251 -4.116536883524814 7.181856224800558 -4.104346816502863 C 7.175761191289583 -4.098251782991889 7.167380520211992 -4.095966145425273 7.159761728323275 -4.095966145425273 Z" fill="#008e28" transform="matrix(1,0,0,1,0,0)" fill-rule="nonzero"></path></g><g clip-path="url(#SvgjsClipPath1000349b209e-3e25-4cda-9e3d-08c2b3fe24d1)"><path d=" M 6.310266432731122 -5.820098749842348 C 6.30112388246466 -5.820098749842348 6.291981332198198 -5.823908145786708 6.285886298687222 -5.830765058486555 L 6.227221601144086 -5.896286668729537 C 6.2150315341221365 -5.910000494129231 6.215793413311008 -5.930571232228772 6.229507238710701 -5.942761299250722 C 6.243221064110395 -5.954951366272672 6.263791802209937 -5.9541894870838 6.275981869231888 -5.940475661684106 L 6.334646566775023 -5.874954051441124 C 6.346836633796974 -5.86124022604143 6.3460747546081 -5.84066948794189 6.3323609292084075 -5.828479420919939 C 6.326265895697432 -5.822384387408963 6.317885224619841 -5.820098749842348 6.310266432731122 -5.820098749842348 Z" fill="#00b738" transform="matrix(1,0,0,1,0,0)" fill-rule="nonzero"></path></g><g clip-path="url(#SvgjsClipPath1000349b209e-3e25-4cda-9e3d-08c2b3fe24d1)"><path d=" M 4.84974402766372 -5.965617674916878 C 4.840601477397257 -5.965617674916878 4.831458927130795 -5.969427070861237 4.825363893619819 -5.976283983561085 L 4.707272619344677 -6.106565324858177 C 4.695082552322727 -6.120279150257871 4.695844431511599 -6.140849888357412 4.709558256911293 -6.153039955379362 C 4.723272082310987 -6.165230022401312 4.743842820410528 -6.1644681432124395 4.756032887432478 -6.150754317812746 L 4.87412416170762 -6.020472976515654 C 4.886314228729571 -6.0067591511159595 4.885552349540698 -5.98618841301642 4.871838524141005 -5.9739983459944686 C 4.865743490630029 -5.968665191672366 4.8573628195524385 -5.965617674916878 4.84974402766372 -5.965617674916878 Z" fill="#00fb2b" transform="matrix(1,0,0,1,0,0)" fill-rule="nonzero"></path></g><g clip-path="url(#SvgjsClipPath1000349b209e-3e25-4cda-9e3d-08c2b3fe24d1)"><path d=" M 4.631084700457489 -6.2018002234671625 C 4.6219421501910265 -6.2018002234671625 4.612799599924563 -6.205609619411522 4.606704566413589 -6.212466532111369 L 4.548039868870454 -6.277988142354351 C 4.535849801848503 -6.291701967754045 4.536611681037375 -6.3122727058535855 4.550325506437069 -6.324462772875536 C 4.564039331836764 -6.336652839897486 4.5846100699363035 -6.335890960708614 4.5968001369582545 -6.32217713530892 L 4.655464834501389 -6.256655525065938 C 4.667654901523339 -6.242941699666244 4.666893022334468 -6.222370961566703 4.653179196934774 -6.210180894544753 C 4.6470841634237985 -6.204085861033779 4.638703492346208 -6.2018002234671625 4.631084700457489 -6.2018002234671625 Z" fill="#00b738" transform="matrix(1,0,0,1,0,0)" fill-rule="nonzero"></path></g><g clip-path="url(#SvgjsClipPath1000349b209e-3e25-4cda-9e3d-08c2b3fe24d1)"><path d=" M 5.291633957209412 -3.583221451314495 L 5.291633957209412 -0.6736048290127679 C 5.291633957209412 -0.43970791802909837 5.101926039180314 -0.25 4.868029128196644 -0.25 L 4.13053007336866 -0.25 C 3.8966331623849912 -0.25 3.706925244355892 -0.43970791802909837 3.706925244355892 -0.6736048290127679 L 3.706925244355892 -3.0339065561378655 C 3.706925244355892 -3.2198050782226053 3.5560731649592587 -3.37065715761924 3.3701746428745194 -3.37065715761924 L 1.630804454680007 -3.37065715761924 L 1.617090629280313 -5.014792447204766 L 3.859301082130269 -5.014792447204766 C 4.650893559368157 -5.014792447204766 5.291633957209412 -4.37329017017464 5.291633957209412 -3.583221451314495 Z" fill="#00b738" transform="matrix(1,0,0,1,0,0)" fill-rule="nonzero"></path></g><g clip-path="url(#SvgjsClipPath1000349b209e-3e25-4cda-9e3d-08c2b3fe24d1)"><path d=" M 3.3122718245202565 -5.014792447204766 L 1.8997478083517823 -3.37065715761924 L 1.7123255278892986 -3.37065715761924 C 1.7138492862670425 -3.372180915996984 1.716134923833658 -3.3737046743747277 1.7176586822114017 -3.37522843275247 L 2.540488206193037 -4.33291057316443 L 3.1271351816243884 -5.0147924472047665 L 3.3122718245202565 -5.0147924472047665 Z" fill="#02ad32" transform="matrix(1,0,0,1,0,0)" fill-rule="nonzero"></path></g><g clip-path="url(#SvgjsClipPath1000349b209e-3e25-4cda-9e3d-08c2b3fe24d1)"><path d=" M 5.787617309165009 -6.614738743835724 C 5.082117180269645 -7.234908403577438 4.507660271860244 -6.614738743835724 4.042913966648394 -6.078375794869917 C 4.034533295570803 -6.069995123792326 4.026152624493212 -6.0616144527147355 4.0185338326044935 -6.052471902448273 L 3.8661579948301164 -5.874954051441124 L 3.1812286040342923 -5.077266540692261 L 3.1271351816243884 -5.0147924472047665 L 2.5404882061930376 -4.33291057316443 L 2.2479265976662335 -3.993112454927569 L 1.7222299573446334 -3.3813234662634457 C 1.7207061989668897 -3.3797997078857014 1.7191824405891458 -3.3775140703190862 1.7176586822114022 -3.375990311941342 C 1.7161349238336583 -3.3744665535635976 1.7146111654559144 -3.372942795185854 1.7123255278892988 -3.37141903680811 L 1.630804454680007 -3.37141903680811 C 1.6148049917136975 -3.3828472246411883 1.604138683069491 -3.4018942043629865 1.604138683069491 -3.4247505800291425 L 1.604138683069491 -4.905843723196087 C 1.604138683069491 -4.943175803450809 1.6087099582027224 -4.9797460045166595 1.617090629280313 -5.0147924472047665 C 1.6338519714354944 -5.085647211769852 1.6681365349347292 -5.151930701201706 1.716134923833658 -5.208309761178225 L 3.7724468545988747 -7.600610414235943 C 4.079484167714244 -7.957931753816856 4.633370338024104 -7.957931753816856 4.940407651139473 -7.600610414235943 L 5.787617309165009 -6.614738743835724 Z" fill="#ffffff" transform="matrix(1,0,0,1,0,0)" fill-rule="nonzero"></path></g><g clip-path="url(#SvgjsClipPath1000349b209e-3e25-4cda-9e3d-08c2b3fe24d1)"><path d=" M 5.787617309165009 -6.614738743835724 C 5.082117180269645 -7.234908403577438 4.507660271860244 -6.614738743835724 4.042913966648394 -6.078375794869917 C 4.034533295570803 -6.069995123792326 4.026152624493212 -6.0616144527147355 4.0185338326044935 -6.052471902448273 L 3.8661579948301164 -5.874954051441124 L 3.1812286040342923 -5.077266540692261 L 3.1271351816243884 -5.0147924472047665 L 2.5404882061930376 -4.33291057316443 L 2.2479265976662335 -3.993112454927569 L 1.7222299573446334 -3.3813234662634457 C 1.7207061989668897 -3.3797997078857014 1.7191824405891458 -3.3775140703190862 1.7176586822114022 -3.375990311941342 C 1.7161349238336583 -3.3744665535635976 1.7146111654559144 -3.372942795185854 1.7123255278892988 -3.37141903680811 L 1.630804454680007 -3.37141903680811 C 1.6148049917136975 -3.3828472246411883 1.604138683069491 -3.4018942043629865 1.604138683069491 -3.4247505800291425 L 1.604138683069491 -4.905843723196087 C 1.604138683069491 -4.943175803450809 1.6087099582027224 -4.9797460045166595 1.617090629280313 -5.0147924472047665 C 1.6338519714354944 -5.085647211769852 1.6681365349347292 -5.151930701201706 1.716134923833658 -5.208309761178225 L 3.7724468545988747 -7.600610414235943 C 4.079484167714244 -7.957931753816856 4.633370338024104 -7.957931753816856 4.940407651139473 -7.600610414235943 L 5.787617309165009 -6.614738743835724 Z" fill="#00fb2b" transform="matrix(1,0,0,1,0,0)" fill-rule="nonzero"></path></g><g clip-path="url(#SvgjsClipPath1000349b209e-3e25-4cda-9e3d-08c2b3fe24d1)"><path d=" M 5.291633957209412 -1.8773739474303452 L 5.291633957209412 -0.6736048290127679 C 5.291633957209412 -0.43970791802909837 5.101926039180314 -0.25 4.868029128196644 -0.25 L 4.13053007336866 -0.25 C 3.8966331623849912 -0.25 3.706925244355892 -0.43970791802909837 3.706925244355892 -0.6736048290127679 L 3.706925244355892 -3.0339065561378655 C 3.706925244355892 -3.2198050782226053 3.5560731649592587 -3.37065715761924 3.3701746428745194 -3.37065715761924 C 4.340808729497301 -3.37065715761924 5.291633957209412 -3.0384778312710976 5.291633957209412 -1.8773739474303452 Z" fill="#008e28" transform="matrix(1,0,0,1,0,0)" fill-rule="nonzero"></path></g><g clip-path="url(#SvgjsClipPath1000349b209e-3e25-4cda-9e3d-08c2b3fe24d1)"><path d=" M 5.291633957209412 -1.8773739474303452 L 5.291633957209412 -1.7394738142445343 C 5.291633957209412 -2.7885814573211194 4.515279063748963 -3.1611403806794716 3.649022426001629 -3.222852594978094 C 3.5888339700807506 -3.3119924600761044 3.4859802795830457 -3.37065715761924 3.3701746428745194 -3.37065715761924 C 4.340808729497301 -3.37065715761924 5.291633957209412 -3.0384778312710976 5.291633957209412 -1.8773739474303452 Z" fill="#008720" transform="matrix(1,0,0,1,0,0)" fill-rule="nonzero"></path></g></g></g><defs><clipPath id="SvgjsClipPath1002"><path d=" M 1.604138683069491 -7.868791888718846 h 5.589145729564145 v 7.618791888718846 h -5.589145729564145 Z"></path></clipPath><clipPath id="SvgjsClipPath1000349b209e-3e25-4cda-9e3d-08c2b3fe24d1"><path d=" M 1.604138683069491 -7.868791888718846 L 7.193284412633636 -7.868791888718846 L 7.193284412633636 -0.25 L 1.604138683069491 -0.25 Z"></path></clipPath></defs></svg>